<?xml version="1.0" encoding="UTF-8"?>
<!-- Generator: Adobe Illustrator 23.0.6, SVG Export Plug-In . SVG Version: 6.00 Build 0)  -->
<svg version="1.1" id="Calque_1" xmlns="http://www.w3.org/2000/svg" xmlns:xlink="http://www.w3.org/1999/xlink" x="0px" y="0px" viewBox="0 0 954 342" style="enable-background:new 0 0 954 342;" xml:space="preserve">
<style type="text/css">
	.st0{fill:#AFAFAF;}
</style>
<polygon class="st0" points="390.5,77.1 372.5,59.1 346.9,59.1 346.9,58.3 372.8,58.3 391,76.5 "/>
<polygon class="st0" points="290.9,59.4 272.4,59.4 249.8,36.8 250.5,36.1 272.8,58.4 290.9,58.4 "/>
<polygon class="st0" points="164.1,54.8 158.7,50.7 159.3,49.9 164.1,53.6 168.8,49.9 169.4,50.7 "/>
<polygon class="st0" points="180.7,54.6 175.9,50.9 171.2,54.6 170.5,53.8 175.9,49.7 181.3,53.8 "/>
<polygon class="st0" points="180.7,62.5 175.9,58.8 171.2,62.5 170.5,61.7 175.9,57.6 181.3,61.7 "/>
<polygon class="st0" points="187.8,54.8 182.4,50.7 183,49.9 187.8,53.6 192.5,49.9 193.1,50.7 "/>
<polygon class="st0" points="164.1,46.9 158.7,42.8 159.3,42 164.1,45.7 168.8,42 169.4,42.8 "/>
<polygon class="st0" points="180.7,46.7 175.9,43 171.2,46.7 170.5,45.9 175.9,41.8 181.3,45.9 "/>
<polygon class="st0" points="187.8,46.9 182.4,42.8 183,42 187.8,45.7 192.5,42 193.1,42.8 "/>
<polygon class="st0" points="204.4,46.7 199.6,43 194.8,46.7 194.2,45.9 199.6,41.8 205,45.9 "/>
<polygon class="st0" points="164.1,39 158.7,34.9 159.3,34.1 164.1,37.8 168.8,34.1 169.4,34.9 "/>
<polygon class="st0" points="180.7,38.8 175.9,35.1 171.2,38.8 170.5,38 175.9,33.9 181.3,38 "/>
<polygon class="st0" points="187.8,39 182.4,34.9 183,34.1 187.8,37.8 192.5,34.1 193.1,34.9 "/>
<polygon class="st0" points="204.4,38.8 199.6,35.1 194.8,38.8 194.2,38 199.6,33.9 205,38 "/>
<polygon class="st0" points="211.5,39 206.1,34.9 206.7,34.1 211.5,37.8 216.2,34.1 216.8,34.9 "/>
<polygon class="st0" points="164.1,31.1 158.7,27 159.3,26.2 164.1,29.9 168.8,26.2 169.4,27 "/>
<polygon class="st0" points="180.7,30.9 175.9,27.2 171.2,30.9 170.5,30.1 175.9,26 181.3,30.1 "/>
<polygon class="st0" points="187.8,31.1 182.4,27 183,26.2 187.8,29.9 192.5,26.2 193.1,27 "/>
<polygon class="st0" points="204.4,30.9 199.6,27.2 194.8,30.9 194.2,30.1 199.6,26 205,30.1 "/>
<polygon class="st0" points="164.1,23.2 158.7,19.1 159.3,18.3 164.1,22 168.8,18.3 169.4,19.1 "/>
<polygon class="st0" points="157,46.7 152.2,43 147.5,46.7 146.9,45.9 152.2,41.8 157.6,45.9 "/>
<polygon class="st0" points="157,38.8 152.2,35.1 147.5,38.8 146.9,38 152.2,33.9 157.6,38 "/>
<polygon class="st0" points="157,30.9 152.2,27.2 147.5,30.9 146.9,30.1 152.2,26 157.6,30.1 "/>
<polygon class="st0" points="140.4,39 135,34.9 135.6,34.1 140.4,37.8 145.1,34.1 145.7,34.9 "/>
<polygon class="st0" points="180.7,23 175.9,19.3 171.2,23 170.5,22.2 175.9,18.1 181.3,22.2 "/>
<polygon class="st0" points="180.7,15.1 175.9,11.4 171.2,15.1 170.5,14.3 175.9,10.2 181.3,14.3 "/>
<polygon class="st0" points="187.8,23.2 182.4,19.1 183,18.3 187.8,22 192.5,18.3 193.1,19.1 "/>
<path class="st0" d="M222.4,112.3h-4.9v-4.9h4.9V112.3z M218.5,111.4h3v-3h-3V111.4z"/>
<path class="st0" d="M236.2,112.3h-4.9v-4.9h4.9V112.3z M232.3,111.4h3v-3h-3V111.4z"/>
<path class="st0" d="M250.1,112.3h-4.9v-4.9h4.9V112.3z M246.1,111.4h3v-3h-3V111.4z"/>
<path class="st0" d="M263.9,112.3H259v-4.9h4.9V112.3z M259.9,111.4h3v-3h-3V111.4z"/>
<path class="st0" d="M277.7,112.3h-4.9v-4.9h4.9V112.3z M273.8,111.4h3v-3h-3V111.4z"/>
<path class="st0" d="M236.2,99.7h-4.9v-4.9h4.9V99.7z M232.3,98.7h3v-3h-3V98.7z"/>
<path class="st0" d="M250.1,99.7h-4.9v-4.9h4.9V99.7z M246.1,98.7h3v-3h-3V98.7z"/>
<path class="st0" d="M263.9,99.7H259v-4.9h4.9V99.7z M259.9,98.7h3v-3h-3V98.7z"/>
<path class="st0" d="M250.1,87.1h-4.9v-4.9h4.9V87.1z M246.1,86.1h3v-3h-3V86.1z"/>
<path class="st0" d="M263.9,87.1H259v-4.9h4.9V87.1z M259.9,86.1h3v-3h-3V86.1z"/>
<path class="st0" d="M277.7,99.7h-4.9v-4.9h4.9V99.7z M273.8,98.7h3v-3h-3V98.7z"/>
<path class="st0" d="M291.5,112.3h-4.9v-4.9h4.9V112.3z M287.6,111.4h3v-3h-3V111.4z"/>
<g>
	<rect x="341.4" y="13.1" transform="matrix(0.7071 -0.7071 0.7071 0.7071 91.294 247.6649)" class="st0" width="6.4" height="1"/>
	<rect x="344.1" y="10.4" transform="matrix(0.7071 -0.7071 0.7071 0.7071 91.3041 247.6758)" class="st0" width="1" height="6.4"/>
</g>
<g>
	<rect x="325.6" y="13.1" transform="matrix(0.7071 -0.7071 0.7071 0.7071 86.667 236.4938)" class="st0" width="6.4" height="1"/>
	<rect x="328.3" y="10.4" transform="matrix(0.7071 -0.7071 0.7071 0.7071 86.6767 236.5043)" class="st0" width="1" height="6.4"/>
</g>
<g>
	<rect x="309.8" y="13.1" transform="matrix(0.7071 -0.7071 0.7071 0.7071 82.0401 225.3227)" class="st0" width="6.4" height="1"/>
	<rect x="312.5" y="10.4" transform="matrix(0.7071 -0.7071 0.7071 0.7071 82.0492 225.3327)" class="st0" width="1" height="6.4"/>
</g>
<g>
	<rect x="294" y="13.1" transform="matrix(0.7071 -0.7071 0.7071 0.7071 77.4132 214.1516)" class="st0" width="6.4" height="1"/>
	<rect x="296.7" y="10.4" transform="matrix(0.7071 -0.7071 0.7071 0.7071 77.4218 214.1611)" class="st0" width="1" height="6.4"/>
</g>
<g>
	<rect x="349.3" y="21" transform="matrix(0.7071 -0.7071 0.7071 0.7071 88.0219 255.5639)" class="st0" width="6.4" height="1"/>
	<rect x="352" y="18.3" transform="matrix(0.7071 -0.7071 0.7071 0.7071 88.032 255.5753)" class="st0" width="1" height="6.4"/>
</g>
<g>
	<rect x="333.5" y="21" transform="matrix(0.7071 -0.7071 0.7071 0.7071 83.395 244.3928)" class="st0" width="6.4" height="1"/>
	<rect x="336.2" y="18.3" transform="matrix(0.7071 -0.7071 0.7071 0.7071 83.4046 244.4037)" class="st0" width="1" height="6.4"/>
</g>
<g>
	<rect x="317.7" y="21" transform="matrix(0.7071 -0.7071 0.7071 0.7071 78.768 233.2217)" class="st0" width="6.4" height="1"/>
	<rect x="320.4" y="18.3" transform="matrix(0.7071 -0.7071 0.7071 0.7071 78.7772 233.2322)" class="st0" width="1" height="6.4"/>
</g>
<g>
	<rect x="301.9" y="21" transform="matrix(0.7071 -0.7071 0.7071 0.7071 74.1411 222.0506)" class="st0" width="6.4" height="1"/>
	<rect x="304.6" y="18.3" transform="matrix(0.7071 -0.7071 0.7071 0.7071 74.1497 222.0606)" class="st0" width="1" height="6.4"/>
</g>
<g>
	<rect x="286.1" y="21" transform="matrix(0.7071 -0.7071 0.7071 0.7071 69.5142 210.8796)" class="st0" width="6.4" height="1"/>
	<rect x="288.8" y="18.3" transform="matrix(0.7071 -0.7071 0.7071 0.7071 69.5223 210.8891)" class="st0" width="1" height="6.4"/>
</g>
<g>
	<rect x="341.4" y="28.9" transform="matrix(0.7071 -0.7071 0.7071 0.7071 80.1229 252.2918)" class="st0" width="6.4" height="1"/>
	<rect x="344.1" y="26.2" transform="matrix(0.7071 -0.7071 0.7071 0.7071 80.1325 252.3032)" class="st0" width="1" height="6.4"/>
</g>
<g>
	<rect x="357.3" y="13.1" transform="matrix(0.7071 -0.7071 0.7071 0.7071 95.9415 258.8857)" class="st0" width="6.4" height="1"/>
	<rect x="360" y="10.4" transform="matrix(0.7071 -0.7071 0.7071 0.7071 95.9521 258.8972)" class="st0" width="1" height="6.4"/>
</g>
<g>
	<rect x="365.2" y="21" transform="matrix(0.7071 -0.7071 0.7071 0.7071 92.6694 266.7848)" class="st0" width="6.4" height="1"/>
	<rect x="367.9" y="18.3" transform="matrix(0.7071 -0.7071 0.7071 0.7071 92.68 266.7966)" class="st0" width="1" height="6.4"/>
</g>
<g>
	<rect x="357.3" y="28.9" transform="matrix(0.7071 -0.7071 0.7071 0.7071 84.7704 263.5127)" class="st0" width="6.4" height="1"/>
	<rect x="360" y="26.2" transform="matrix(0.7071 -0.7071 0.7071 0.7071 84.7805 263.5246)" class="st0" width="1" height="6.4"/>
</g>
<g>
	<rect x="365.1" y="21" transform="matrix(0.7071 -0.7071 0.7071 0.7071 92.6385 266.7101)" class="st0" width="6.4" height="1"/>
	<rect x="367.8" y="18.3" transform="matrix(0.7071 -0.7071 0.7071 0.7071 92.6491 266.722)" class="st0" width="1" height="6.4"/>
</g>
<g>
	<rect x="325.6" y="28.9" transform="matrix(0.7071 -0.7071 0.7071 0.7071 75.4959 241.1207)" class="st0" width="6.4" height="1"/>
	<rect x="328.3" y="26.2" transform="matrix(0.7071 -0.7071 0.7071 0.7071 75.5051 241.1317)" class="st0" width="1" height="6.4"/>
</g>
<g>
	<rect x="309.8" y="28.9" transform="matrix(0.7071 -0.7071 0.7071 0.7071 70.869 229.9496)" class="st0" width="6.4" height="1"/>
	<rect x="312.5" y="26.2" transform="matrix(0.7071 -0.7071 0.7071 0.7071 70.8777 229.9601)" class="st0" width="1" height="6.4"/>
</g>
<g>
	<rect x="294" y="28.9" transform="matrix(0.7071 -0.7071 0.7071 0.7071 66.2421 218.7786)" class="st0" width="6.4" height="1"/>
	<rect x="296.7" y="26.2" transform="matrix(0.7071 -0.7071 0.7071 0.7071 66.2503 218.7885)" class="st0" width="1" height="6.4"/>
</g>
<path class="st0" d="M455.6,14.4L449,8.6l6.6-5.8l6.8,5.8L455.6,14.4z M450.5,8.6l5.1,4.5l5.3-4.5l-5.3-4.5L450.5,8.6z"/>
<rect x="480.4" y="1.9" class="st0" width="1" height="13.8"/>
<rect x="472.7" y="1.1" transform="matrix(0.9041 -0.4274 0.4274 0.9041 41.6995 203.0713)" class="st0" width="1" height="15"/>
<polygon class="st0" points="372.6,141.1 372,140.3 377.4,136.2 382.7,140.3 382.1,141.1 377.4,137.4 "/>
<polygon class="st0" points="372.6,145 372,144.3 377.4,140.1 382.7,144.3 382.1,145 377.4,141.4 "/>
<polygon class="st0" points="372.6,149 372,148.2 377.4,144.1 382.7,148.2 382.1,149 377.4,145.3 "/>
<rect x="484.1" y="96.8" class="st0" width="1" height="6.4"/>
<rect x="489.1" y="96.8" class="st0" width="1" height="6.4"/>
<rect x="469.3" y="96.8" class="st0" width="1" height="6.4"/>
<rect x="474.2" y="96.8" class="st0" width="1" height="6.4"/>
<rect x="479.2" y="96.8" class="st0" width="1" height="6.4"/>
<rect x="486.6" y="88.9" class="st0" width="1" height="6.4"/>
<rect x="491.5" y="88.9" class="st0" width="1" height="6.4"/>
<rect x="466.8" y="88.9" class="st0" width="1" height="6.4"/>
<rect x="471.8" y="88.9" class="st0" width="1" height="6.4"/>
<rect x="476.7" y="88.9" class="st0" width="1" height="6.4"/>
<rect x="481.7" y="88.9" class="st0" width="1" height="6.4"/>
<rect x="484.1" y="81" class="st0" width="1" height="6.4"/>
<rect x="489.1" y="81" class="st0" width="1" height="6.4"/>
<rect x="469.3" y="81" class="st0" width="1" height="6.4"/>
<rect x="474.2" y="81" class="st0" width="1" height="6.4"/>
<rect x="464.4" y="81" class="st0" width="1" height="6.4"/>
<rect x="479.2" y="81" class="st0" width="1" height="6.4"/>
<rect x="486.6" y="73.1" class="st0" width="1" height="6.4"/>
<rect x="491.5" y="73.1" class="st0" width="1" height="6.4"/>
<rect x="466.8" y="73.1" class="st0" width="1" height="6.4"/>
<rect x="471.8" y="73.1" class="st0" width="1" height="6.4"/>
<rect x="476.7" y="73.1" class="st0" width="1" height="6.4"/>
<rect x="481.7" y="73.1" class="st0" width="1" height="6.4"/>
<rect x="484.1" y="65.2" class="st0" width="1" height="6.4"/>
<rect x="489.1" y="65.2" class="st0" width="1" height="6.4"/>
<rect x="469.3" y="65.2" class="st0" width="1" height="6.4"/>
<rect x="474.2" y="65.2" class="st0" width="1" height="6.4"/>
<rect x="479.2" y="65.2" class="st0" width="1" height="6.4"/>
<g>
	<path class="st0" d="M31.6,50.8c-2.5,0-4.4-2-4.4-4.4c0-2.5,2-4.4,4.4-4.4s4.4,2,4.4,4.4C36,48.8,34,50.8,31.6,50.8z M31.6,42.9   c-1.9,0-3.5,1.6-3.5,3.5c0,1.9,1.6,3.5,3.5,3.5c1.9,0,3.5-1.6,3.5-3.5C35,44.4,33.5,42.9,31.6,42.9z"/>
	<rect x="39.5" y="43.1" class="st0" width="1" height="6.4"/>
	<rect x="41.4" y="43.1" class="st0" width="1" height="6.4"/>
</g>
<g>
	<path class="st0" d="M31.6,64.6c-2.5,0-4.4-2-4.4-4.4s2-4.4,4.4-4.4s4.4,2,4.4,4.4S34,64.6,31.6,64.6z M31.6,56.7   c-1.9,0-3.5,1.6-3.5,3.5s1.6,3.5,3.5,3.5c1.9,0,3.5-1.6,3.5-3.5S33.5,56.7,31.6,56.7z"/>
	<rect x="39.5" y="56.9" class="st0" width="1" height="6.4"/>
	<rect x="41.4" y="56.9" class="st0" width="1" height="6.4"/>
</g>
<g>
	<path class="st0" d="M31.6,78.4c-2.5,0-4.4-2-4.4-4.4c0-2.5,2-4.4,4.4-4.4s4.4,2,4.4,4.4C36,76.4,34,78.4,31.6,78.4z M31.6,70.5   c-1.9,0-3.5,1.6-3.5,3.5c0,1.9,1.6,3.5,3.5,3.5c1.9,0,3.5-1.6,3.5-3.5C35,72.1,33.5,70.5,31.6,70.5z"/>
	<rect x="39.5" y="70.8" class="st0" width="1" height="6.4"/>
	<rect x="41.4" y="70.8" class="st0" width="1" height="6.4"/>
</g>
<g>
	<path class="st0" d="M31.6,92.2c-2.5,0-4.4-2-4.4-4.4s2-4.4,4.4-4.4s4.4,2,4.4,4.4S34,92.2,31.6,92.2z M31.6,84.3   c-1.9,0-3.5,1.6-3.5,3.5s1.6,3.5,3.5,3.5c1.9,0,3.5-1.6,3.5-3.5S33.5,84.3,31.6,84.3z"/>
	<rect x="39.5" y="84.6" class="st0" width="1" height="6.4"/>
	<rect x="41.4" y="84.6" class="st0" width="1" height="6.4"/>
</g>
<g>
	<path class="st0" d="M51.8,64.6c-2.5,0-4.4-2-4.4-4.4s2-4.4,4.4-4.4s4.4,2,4.4,4.4S54.3,64.6,51.8,64.6z M51.8,56.7   c-1.9,0-3.5,1.6-3.5,3.5s1.6,3.5,3.5,3.5c1.9,0,3.5-1.6,3.5-3.5S53.7,56.7,51.8,56.7z"/>
	<rect x="59.7" y="56.9" class="st0" width="1" height="6.4"/>
	<rect x="61.7" y="56.9" class="st0" width="1" height="6.4"/>
</g>
<g>
	<path class="st0" d="M51.8,78.4c-2.5,0-4.4-2-4.4-4.4c0-2.5,2-4.4,4.4-4.4s4.4,2,4.4,4.4C56.3,76.4,54.3,78.4,51.8,78.4z    M51.8,70.5c-1.9,0-3.5,1.6-3.5,3.5c0,1.9,1.6,3.5,3.5,3.5c1.9,0,3.5-1.6,3.5-3.5C55.3,72.1,53.7,70.5,51.8,70.5z"/>
	<rect x="59.7" y="70.8" class="st0" width="1" height="6.4"/>
	<rect x="61.7" y="70.8" class="st0" width="1" height="6.4"/>
</g>
<g>
	<path class="st0" d="M51.8,92.2c-2.5,0-4.4-2-4.4-4.4s2-4.4,4.4-4.4s4.4,2,4.4,4.4S54.3,92.2,51.8,92.2z M51.8,84.3   c-1.9,0-3.5,1.6-3.5,3.5s1.6,3.5,3.5,3.5c1.9,0,3.5-1.6,3.5-3.5S53.7,84.3,51.8,84.3z"/>
	<rect x="59.7" y="84.6" class="st0" width="1" height="6.4"/>
	<rect x="61.7" y="84.6" class="st0" width="1" height="6.4"/>
</g>
<g>
	<path class="st0" d="M51.8,106.1c-2.5,0-4.4-2-4.4-4.4s2-4.4,4.4-4.4s4.4,2,4.4,4.4S54.3,106.1,51.8,106.1z M51.8,98.2   c-1.9,0-3.5,1.6-3.5,3.5s1.6,3.5,3.5,3.5c1.9,0,3.5-1.6,3.5-3.5S53.7,98.2,51.8,98.2z"/>
	<rect x="59.7" y="98.4" class="st0" width="1" height="6.4"/>
	<rect x="61.7" y="98.4" class="st0" width="1" height="6.4"/>
</g>
<g>
	<path class="st0" d="M72.1,78.4c-2.5,0-4.4-2-4.4-4.4c0-2.5,2-4.4,4.4-4.4s4.4,2,4.4,4.4C76.5,76.4,74.5,78.4,72.1,78.4z    M72.1,70.5c-1.9,0-3.5,1.6-3.5,3.5c0,1.9,1.6,3.5,3.5,3.5s3.5-1.6,3.5-3.5C75.5,72.1,74,70.5,72.1,70.5z"/>
	<rect x="80" y="70.8" class="st0" width="1" height="6.4"/>
	<rect x="81.9" y="70.8" class="st0" width="1" height="6.4"/>
</g>
<g>
	<path class="st0" d="M72.1,92.2c-2.5,0-4.4-2-4.4-4.4s2-4.4,4.4-4.4s4.4,2,4.4,4.4S74.5,92.2,72.1,92.2z M72.1,84.3   c-1.9,0-3.5,1.6-3.5,3.5s1.6,3.5,3.5,3.5s3.5-1.6,3.5-3.5S74,84.3,72.1,84.3z"/>
	<rect x="80" y="84.6" class="st0" width="1" height="6.4"/>
	<rect x="81.9" y="84.6" class="st0" width="1" height="6.4"/>
</g>
<g>
	<path class="st0" d="M72.1,106.1c-2.5,0-4.4-2-4.4-4.4s2-4.4,4.4-4.4s4.4,2,4.4,4.4S74.5,106.1,72.1,106.1z M72.1,98.2   c-1.9,0-3.5,1.6-3.5,3.5s1.6,3.5,3.5,3.5s3.5-1.6,3.5-3.5S74,98.2,72.1,98.2z"/>
	<rect x="80" y="98.4" class="st0" width="1" height="6.4"/>
	<rect x="81.9" y="98.4" class="st0" width="1" height="6.4"/>
</g>
<g>
	<path class="st0" d="M72.1,119.9c-2.5,0-4.4-2-4.4-4.4s2-4.4,4.4-4.4s4.4,2,4.4,4.4S74.5,119.9,72.1,119.9z M72.1,112   c-1.9,0-3.5,1.6-3.5,3.5s1.6,3.5,3.5,3.5s3.5-1.6,3.5-3.5S74,112,72.1,112z"/>
	<rect x="80" y="112.2" class="st0" width="1" height="6.4"/>
	<rect x="81.9" y="112.2" class="st0" width="1" height="6.4"/>
</g>
<g>
	<polygon class="st0" points="480.7,31.1 475.6,26.6 480.7,22.1 481.5,22.8 481.5,21.5 480.7,20.8 474.1,26.6 480.7,32.4    481.5,31.7 481.5,30.4  "/>
</g>
<g>
	<polygon class="st0" points="481.5,151.9 475.2,145.7 474.5,146.3 480.8,152.6 481.5,152.6  "/>
</g>
<g>
	<polygon class="st0" points="449.5,133.4 416.6,133.4 391.2,108 390.5,108.7 416.2,134.3 447.1,134.3 430.2,151.2 430.2,152.6    431.2,152.6 431.2,151.6  "/>
</g>
<g>
	<rect x="286.6" y="120.1" class="st0" width="4.9" height="0.6"/>
</g>
<g>
	<rect x="300.4" y="120.1" class="st0" width="4.9" height="0.6"/>
</g>
<g>
	<rect x="272.8" y="120.1" class="st0" width="4.9" height="0.6"/>
</g>
<g>
	<rect x="259" y="120.1" class="st0" width="4.9" height="0.6"/>
</g>
<g>
	<rect x="245.1" y="120.1" class="st0" width="4.9" height="0.6"/>
</g>
<g>
	<rect x="231.3" y="120.1" class="st0" width="4.9" height="0.6"/>
</g>
<g>
	<rect x="217.5" y="120.1" class="st0" width="4.9" height="0.6"/>
</g>
<g>
	<rect x="203.7" y="120.1" class="st0" width="4.9" height="0.6"/>
</g>
<polygon class="st0" points="290.9,326 272.4,326 249.8,303.4 250.5,302.7 272.8,325.1 290.9,325.1 "/>
<polygon class="st0" points="246.8,268.2 224.4,245.9 201.3,245.9 201.3,244.9 224.8,244.9 247.5,267.5 "/>
<polygon class="st0" points="164.1,321.4 158.7,317.3 159.3,316.5 164.1,320.2 168.8,316.5 169.4,317.3 "/>
<polygon class="st0" points="180.7,321.2 175.9,317.5 171.2,321.2 170.5,320.4 175.9,316.3 181.3,320.4 "/>
<polygon class="st0" points="180.7,329.1 175.9,325.4 171.2,329.1 170.5,328.3 175.9,324.2 181.3,328.3 "/>
<polygon class="st0" points="187.8,321.4 182.4,317.3 183,316.5 187.8,320.2 192.5,316.5 193.1,317.3 "/>
<polygon class="st0" points="164.1,313.5 158.7,309.4 159.3,308.6 164.1,312.3 168.8,308.6 169.4,309.4 "/>
<polygon class="st0" points="180.7,313.3 175.9,309.6 171.2,313.3 170.5,312.5 175.9,308.4 181.3,312.5 "/>
<polygon class="st0" points="187.8,313.5 182.4,309.4 183,308.6 187.8,312.3 192.5,308.6 193.1,309.4 "/>
<polygon class="st0" points="204.4,313.3 199.6,309.6 194.8,313.3 194.2,312.5 199.6,308.4 205,312.5 "/>
<polygon class="st0" points="164.1,305.6 158.7,301.5 159.3,300.7 164.1,304.4 168.8,300.7 169.4,301.5 "/>
<polygon class="st0" points="180.7,305.4 175.9,301.7 171.2,305.4 170.5,304.6 175.9,300.5 181.3,304.6 "/>
<polygon class="st0" points="187.8,305.6 182.4,301.5 183,300.7 187.8,304.4 192.5,300.7 193.1,301.5 "/>
<polygon class="st0" points="204.4,305.4 199.6,301.7 194.8,305.4 194.2,304.6 199.6,300.5 205,304.6 "/>
<polygon class="st0" points="211.5,305.6 206.1,301.5 206.7,300.7 211.5,304.4 216.2,300.7 216.8,301.5 "/>
<polygon class="st0" points="164.1,297.7 158.7,293.6 159.3,292.8 164.1,296.5 168.8,292.8 169.4,293.6 "/>
<polygon class="st0" points="180.7,297.5 175.9,293.8 171.2,297.5 170.5,296.7 175.9,292.6 181.3,296.7 "/>
<polygon class="st0" points="187.8,297.7 182.4,293.6 183,292.8 187.8,296.5 192.5,292.8 193.1,293.6 "/>
<polygon class="st0" points="204.4,297.5 199.6,293.8 194.8,297.5 194.2,296.7 199.6,292.6 205,296.7 "/>
<polygon class="st0" points="164.1,289.8 158.7,285.7 159.3,284.9 164.1,288.6 168.8,284.9 169.4,285.7 "/>
<polygon class="st0" points="157,313.3 152.2,309.6 147.5,313.3 146.9,312.5 152.2,308.4 157.6,312.5 "/>
<polygon class="st0" points="157,305.4 152.2,301.7 147.5,305.4 146.9,304.6 152.2,300.5 157.6,304.6 "/>
<polygon class="st0" points="157,297.5 152.2,293.8 147.5,297.5 146.9,296.7 152.2,292.6 157.6,296.7 "/>
<polygon class="st0" points="140.4,305.6 135,301.5 135.6,300.7 140.4,304.4 145.1,300.7 145.7,301.5 "/>
<polygon class="st0" points="180.7,289.6 175.9,285.9 171.2,289.6 170.5,288.8 175.9,284.7 181.3,288.8 "/>
<polygon class="st0" points="180.7,281.7 175.9,278 171.2,281.7 170.5,280.9 175.9,276.8 181.3,280.9 "/>
<polygon class="st0" points="187.8,289.8 182.4,285.7 183,284.9 187.8,288.6 192.5,284.9 193.1,285.7 "/>
<path class="st0" d="M103,204l-29.1-29.1c-0.6-0.6-0.9-0.9-1.1-1.2l-19.7,0v-1l20.1,0l0.1,0.1c0,0,30.4,30.4,30.4,30.4L103,204z"/>
<path class="st0" d="M222.4,137.6h-4.9v-4.9h4.9V137.6z M218.5,136.7h3v-3h-3V136.7z"/>
<path class="st0" d="M236.2,137.6h-4.9v-4.9h4.9V137.6z M232.3,136.7h3v-3h-3V136.7z"/>
<path class="st0" d="M250.1,137.6h-4.9v-4.9h4.9V137.6z M246.1,136.7h3v-3h-3V136.7z"/>
<path class="st0" d="M263.9,137.6H259v-4.9h4.9V137.6z M259.9,136.7h3v-3h-3V136.7z"/>
<path class="st0" d="M236.2,150.3h-4.9v-4.9h4.9V150.3z M232.3,149.3h3v-3h-3V149.3z"/>
<path class="st0" d="M250.1,150.3h-4.9v-4.9h4.9V150.3z M246.1,149.3h3v-3h-3V149.3z"/>
<path class="st0" d="M263.9,150.3H259v-4.9h4.9V150.3z M259.9,149.3h3v-3h-3V149.3z"/>
<path class="st0" d="M250.1,162.9h-4.9V158h4.9V162.9z M246.1,162h3v-3h-3V162z"/>
<path class="st0" d="M263.9,162.9H259V158h4.9V162.9z M259.9,162h3v-3h-3V162z"/>
<path class="st0" d="M277.7,137.6h-4.9v-4.9h4.9V137.6z M273.8,136.7h3v-3h-3V136.7z"/>
<path class="st0" d="M277.7,150.3h-4.9v-4.9h4.9V150.3z M273.8,149.3h3v-3h-3V149.3z"/>
<path class="st0" d="M291.5,137.6h-4.9v-4.9h4.9V137.6z M287.6,136.7h3v-3h-3V136.7z"/>
<g>
	
		<rect x="341.4" y="276.7" transform="matrix(0.7071 -0.7071 0.7071 0.7071 -95.0968 324.8658)" class="st0" width="6.4" height="1"/>
	<rect x="344.1" y="274" transform="matrix(0.7071 -0.7071 0.7071 0.7071 -95.0948 324.8847)" class="st0" width="1" height="6.4"/>
</g>
<g>
	
		<rect x="325.6" y="276.7" transform="matrix(0.7071 -0.7071 0.7071 0.7071 -99.7237 313.6947)" class="st0" width="6.4" height="1"/>
	<rect x="328.3" y="274" transform="matrix(0.7071 -0.7071 0.7071 0.7071 -99.7222 313.7132)" class="st0" width="1" height="6.4"/>
</g>
<g>
	
		<rect x="309.8" y="276.7" transform="matrix(0.7071 -0.7071 0.7071 0.7071 -104.3507 302.5236)" class="st0" width="6.4" height="1"/>
	
		<rect x="312.5" y="274" transform="matrix(0.7071 -0.7071 0.7071 0.7071 -104.3496 302.5416)" class="st0" width="1" height="6.4"/>
</g>
<g>
	
		<rect x="294" y="276.7" transform="matrix(0.7071 -0.7071 0.7071 0.7071 -108.9776 291.3525)" class="st0" width="6.4" height="1"/>
	<rect x="296.7" y="274" transform="matrix(0.7071 -0.7071 0.7071 0.7071 -108.977 291.3701)" class="st0" width="1" height="6.4"/>
</g>
<g>
	
		<rect x="349.3" y="284.6" transform="matrix(0.7071 -0.7071 0.7071 0.7071 -98.3689 332.7648)" class="st0" width="6.4" height="1"/>
	<rect x="352" y="281.9" transform="matrix(0.7071 -0.7071 0.7071 0.7071 -98.3668 332.7842)" class="st0" width="1" height="6.4"/>
</g>
<g>
	
		<rect x="333.5" y="284.6" transform="matrix(0.7071 -0.7071 0.7071 0.7071 -102.9958 321.5937)" class="st0" width="6.4" height="1"/>
	
		<rect x="336.2" y="281.9" transform="matrix(0.7071 -0.7071 0.7071 0.7071 -102.9942 321.6127)" class="st0" width="1" height="6.4"/>
</g>
<g>
	
		<rect x="317.7" y="284.6" transform="matrix(0.7071 -0.7071 0.7071 0.7071 -107.6227 310.4226)" class="st0" width="6.4" height="1"/>
	
		<rect x="320.4" y="281.9" transform="matrix(0.7071 -0.7071 0.7071 0.7071 -107.6217 310.4411)" class="st0" width="1" height="6.4"/>
</g>
<g>
	
		<rect x="301.9" y="284.6" transform="matrix(0.7071 -0.7071 0.7071 0.7071 -112.2497 299.2515)" class="st0" width="6.4" height="1"/>
	
		<rect x="304.6" y="281.9" transform="matrix(0.7071 -0.7071 0.7071 0.7071 -112.2491 299.2695)" class="st0" width="1" height="6.4"/>
</g>
<g>
	
		<rect x="286.1" y="284.6" transform="matrix(0.7071 -0.7071 0.7071 0.7071 -116.8766 288.0804)" class="st0" width="6.4" height="1"/>
	
		<rect x="288.8" y="281.9" transform="matrix(0.7071 -0.7071 0.7071 0.7071 -116.8765 288.098)" class="st0" width="1" height="6.4"/>
</g>
<g>
	
		<rect x="341.4" y="292.5" transform="matrix(0.7071 -0.7071 0.7071 0.7071 -106.2679 329.4927)" class="st0" width="6.4" height="1"/>
	
		<rect x="344.1" y="289.8" transform="matrix(0.7071 -0.7071 0.7071 0.7071 -106.2663 329.5121)" class="st0" width="1" height="6.4"/>
</g>
<g>
	
		<rect x="357.3" y="276.7" transform="matrix(0.7071 -0.7071 0.7071 0.7071 -90.4493 336.0866)" class="st0" width="6.4" height="1"/>
	<rect x="360" y="274" transform="matrix(0.7071 -0.7071 0.7071 0.7071 -90.4467 336.1061)" class="st0" width="1" height="6.4"/>
</g>
<g>
	
		<rect x="365.2" y="284.6" transform="matrix(0.7071 -0.7071 0.7071 0.7071 -93.7213 343.9856)" class="st0" width="6.4" height="1"/>
	
		<rect x="367.9" y="281.9" transform="matrix(0.7071 -0.7071 0.7071 0.7071 -93.7188 344.0056)" class="st0" width="1" height="6.4"/>
</g>
<g>
	
		<rect x="357.3" y="292.5" transform="matrix(0.7071 -0.7071 0.7071 0.7071 -101.6203 340.7135)" class="st0" width="6.4" height="1"/>
	
		<rect x="360" y="289.8" transform="matrix(0.7071 -0.7071 0.7071 0.7071 -101.6183 340.7335)" class="st0" width="1" height="6.4"/>
</g>
<g>
	
		<rect x="365.1" y="284.6" transform="matrix(0.7071 -0.7071 0.7071 0.7071 -93.7523 343.9109)" class="st0" width="6.4" height="1"/>
	
		<rect x="367.8" y="281.9" transform="matrix(0.7071 -0.7071 0.7071 0.7071 -93.7497 343.9309)" class="st0" width="1" height="6.4"/>
</g>
<g>
	
		<rect x="325.6" y="292.5" transform="matrix(0.7071 -0.7071 0.7071 0.7071 -110.8948 318.3216)" class="st0" width="6.4" height="1"/>
	
		<rect x="328.3" y="289.8" transform="matrix(0.7071 -0.7071 0.7071 0.7071 -110.8937 318.3406)" class="st0" width="1" height="6.4"/>
</g>
<g>
	
		<rect x="309.8" y="292.5" transform="matrix(0.7071 -0.7071 0.7071 0.7071 -115.5218 307.1505)" class="st0" width="6.4" height="1"/>
	
		<rect x="312.5" y="289.8" transform="matrix(0.7071 -0.7071 0.7071 0.7071 -115.5211 307.169)" class="st0" width="1" height="6.4"/>
</g>
<g>
	
		<rect x="294" y="292.5" transform="matrix(0.7071 -0.7071 0.7071 0.7071 -120.1487 295.9794)" class="st0" width="6.4" height="1"/>
	
		<rect x="296.7" y="289.8" transform="matrix(0.7071 -0.7071 0.7071 0.7071 -120.1486 295.9975)" class="st0" width="1" height="6.4"/>
</g>
<rect x="472.6" y="257.2" class="st0" width="1" height="13.8"/>
<rect x="464.9" y="256.5" transform="matrix(0.9041 -0.4274 0.4274 0.9041 -68.1918 224.2276)" class="st0" width="1" height="15"/>
<rect x="473.2" y="263.5" transform="matrix(0.426 -0.9047 0.9047 0.426 37.0491 586.437)" class="st0" width="15" height="1"/>
<path class="st0" d="M473,287.8l-6.6-5.8l6.6-5.8l6.8,5.8L473,287.8z M467.9,282l5.1,4.5l5.3-4.5l-5.3-4.5L467.9,282z"/>
<rect x="497.7" y="275.3" class="st0" width="1" height="13.8"/>
<rect x="490.1" y="274.5" transform="matrix(0.9041 -0.4274 0.4274 0.9041 -73.4781 236.7177)" class="st0" width="1" height="15"/>
<rect x="497.7" y="239.2" class="st0" width="1" height="13.8"/>
<rect x="490.1" y="238.5" transform="matrix(0.9041 -0.4274 0.4274 0.9041 -58.0747 233.2604)" class="st0" width="1" height="15"/>
<path class="st0" d="M473,251.8l-6.6-5.8l6.6-5.8l6.8,5.8L473,251.8z M467.9,245.9l5.1,4.5l5.3-4.5l-5.3-4.5L467.9,245.9z"/>
<path class="st0" d="M449.1,269.8l-6.6-5.8l6.6-5.8l6.8,5.8L449.1,269.8z M444.1,264l5.1,4.5l5.3-4.5l-5.3-4.5L444.1,264z"/>
<polygon class="st0" points="348.9,178.6 348.3,177.8 353.7,173.7 359,177.8 358.4,178.6 353.7,175 "/>
<polygon class="st0" points="348.9,182.6 348.3,181.8 353.7,177.7 359,181.8 358.4,182.6 353.7,178.9 "/>
<polygon class="st0" points="348.9,186.5 348.3,185.7 353.7,181.6 359,185.7 358.4,186.5 353.7,182.9 "/>
<polygon class="st0" points="360.7,178.6 360.1,177.8 365.5,173.7 370.9,177.8 370.3,178.6 365.5,175 "/>
<polygon class="st0" points="360.7,182.6 360.1,181.8 365.5,177.7 370.9,181.8 370.3,182.6 365.5,178.9 "/>
<polygon class="st0" points="360.7,186.5 360.1,185.7 365.5,181.6 370.9,185.7 370.3,186.5 365.5,182.9 "/>
<polygon class="st0" points="372.6,178.6 372,177.8 377.4,173.7 382.7,177.8 382.1,178.6 377.4,175 "/>
<polygon class="st0" points="372.6,182.6 372,181.8 377.4,177.7 382.7,181.8 382.1,182.6 377.4,178.9 "/>
<polygon class="st0" points="372.6,186.5 372,185.7 377.4,181.6 382.7,185.7 382.1,186.5 377.4,182.9 "/>
<polygon class="st0" points="384.4,178.6 383.8,177.8 389.2,173.7 394.6,177.8 394,178.6 389.2,175 "/>
<polygon class="st0" points="384.4,182.6 383.8,181.8 389.2,177.7 394.6,181.8 394,182.6 389.2,178.9 "/>
<polygon class="st0" points="384.4,186.5 383.8,185.7 389.2,181.6 394.6,185.7 394,186.5 389.2,182.9 "/>
<polygon class="st0" points="360.7,159.8 360.1,159.1 365.5,154.9 370.9,159.1 370.3,159.8 365.5,156.2 "/>
<polygon class="st0" points="360.7,163.8 360.1,163 365.5,158.9 370.9,163 370.3,163.8 365.5,160.1 "/>
<polygon class="st0" points="360.7,167.7 360.1,167 365.5,162.8 370.9,167 370.3,167.7 365.5,164.1 "/>
<polygon class="st0" points="372.6,159.8 372,159.1 377.4,154.9 382.7,159.1 382.1,159.8 377.4,156.2 "/>
<polygon class="st0" points="372.6,163.8 372,163 377.4,158.9 382.7,163 382.1,163.8 377.4,160.1 "/>
<polygon class="st0" points="372.6,167.7 372,167 377.4,162.8 382.7,167 382.1,167.7 377.4,164.1 "/>
<polygon class="st0" points="384.4,159.8 383.8,159.1 389.2,154.9 394.6,159.1 394,159.8 389.2,156.2 "/>
<polygon class="st0" points="384.4,163.8 383.8,163 389.2,158.9 394.6,163 394,163.8 389.2,160.1 "/>
<polygon class="st0" points="384.4,167.7 383.8,167 389.2,162.8 394.6,167 394,167.7 389.2,164.1 "/>
<polygon class="st0" points="396.3,178.6 395.7,177.8 401.1,173.7 406.4,177.8 405.8,178.6 401.1,175 "/>
<polygon class="st0" points="396.3,182.6 395.7,181.8 401.1,177.7 406.4,181.8 405.8,182.6 401.1,178.9 "/>
<polygon class="st0" points="396.3,186.5 395.7,185.7 401.1,181.6 406.4,185.7 405.8,186.5 401.1,182.9 "/>
<polygon class="st0" points="360.7,196.9 360.1,196.1 365.5,192 370.9,196.1 370.3,196.9 365.5,193.3 "/>
<polygon class="st0" points="360.7,200.9 360.1,200.1 365.5,196 370.9,200.1 370.3,200.9 365.5,197.2 "/>
<polygon class="st0" points="360.7,204.8 360.1,204 365.5,199.9 370.9,204 370.3,204.8 365.5,201.2 "/>
<polygon class="st0" points="372.6,196.9 372,196.1 377.4,192 382.7,196.1 382.1,196.9 377.4,193.3 "/>
<polygon class="st0" points="372.6,200.9 372,200.1 377.4,196 382.7,200.1 382.1,200.9 377.4,197.2 "/>
<polygon class="st0" points="372.6,204.8 372,204 377.4,199.9 382.7,204 382.1,204.8 377.4,201.2 "/>
<polygon class="st0" points="384.4,196.9 383.8,196.1 389.2,192 394.6,196.1 394,196.9 389.2,193.3 "/>
<polygon class="st0" points="384.4,200.9 383.8,200.1 389.2,196 394.6,200.1 394,200.9 389.2,197.2 "/>
<polygon class="st0" points="384.4,204.8 383.8,204 389.2,199.9 394.6,204 394,204.8 389.2,201.2 "/>
<polygon class="st0" points="372.6,215.1 372,214.3 377.4,210.2 382.7,214.3 382.1,215.1 377.4,211.4 "/>
<polygon class="st0" points="372.6,219 372,218.3 377.4,214.1 382.7,218.3 382.1,219 377.4,215.4 "/>
<polygon class="st0" points="372.6,223 372,222.2 377.4,218.1 382.7,222.2 382.1,223 377.4,219.3 "/>
<path class="st0" d="M406.4,298.4v13.8h-3.9v-13.8H406.4 M407.4,297.4h-5.9v15.8h5.9V297.4L407.4,297.4z"/>
<path class="st0" d="M398.5,298.4v13.8h-3.9v-13.8H398.5 M399.5,297.4h-5.9v15.8h5.9V297.4L399.5,297.4z"/>
<path class="st0" d="M424.1,306.3v13.8h-3.9v-13.8H424.1 M425.1,305.3h-5.9v15.8h5.9V305.3L425.1,305.3z"/>
<path class="st0" d="M416.2,306.3v13.8h-3.9v-13.8H416.2 M417.2,305.3h-5.9v15.8h5.9V305.3L417.2,305.3z"/>
<path class="st0" d="M441.9,298.4v13.8H438v-13.8H441.9 M442.9,297.4H437v15.8h5.9V297.4L442.9,297.4z"/>
<path class="st0" d="M434,298.4v13.8h-3.9v-13.8H434 M435,297.4h-5.9v15.8h5.9V297.4L435,297.4z"/>
<g>
	<path class="st0" d="M60.6,314.1c-2.5,0-4.4-2-4.4-4.4c0-2.5,2-4.4,4.4-4.4s4.4,2,4.4,4.4C65,312.1,63,314.1,60.6,314.1z    M60.6,306.2c-1.9,0-3.5,1.6-3.5,3.5c0,1.9,1.6,3.5,3.5,3.5s3.5-1.6,3.5-3.5C64,307.7,62.5,306.2,60.6,306.2z"/>
	<rect x="68.5" y="306.4" class="st0" width="1" height="6.4"/>
	<rect x="70.4" y="306.4" class="st0" width="1" height="6.4"/>
</g>
<g>
	<path class="st0" d="M60.6,327.9c-2.5,0-4.4-2-4.4-4.4c0-2.5,2-4.4,4.4-4.4s4.4,2,4.4,4.4C65,325.9,63,327.9,60.6,327.9z M60.6,320   c-1.9,0-3.5,1.6-3.5,3.5c0,1.9,1.6,3.5,3.5,3.5s3.5-1.6,3.5-3.5C64,321.5,62.5,320,60.6,320z"/>
	<rect x="68.5" y="320.2" class="st0" width="1" height="6.4"/>
	<rect x="70.4" y="320.2" class="st0" width="1" height="6.4"/>
</g>
<g>
	<path class="st0" d="M60.6,341.7c-2.5,0-4.4-2-4.4-4.4c0-2.5,2-4.4,4.4-4.4s4.4,2,4.4,4.4C65,339.7,63,341.7,60.6,341.7z    M60.6,333.8c-1.9,0-3.5,1.6-3.5,3.5c0,1.9,1.6,3.5,3.5,3.5s3.5-1.6,3.5-3.5C64,335.4,62.5,333.8,60.6,333.8z"/>
	<rect x="68.5" y="334.1" class="st0" width="1" height="6.4"/>
	<rect x="70.4" y="334.1" class="st0" width="1" height="6.4"/>
</g>
<g>
	<path class="st0" d="M80.8,327.9c-2.5,0-4.4-2-4.4-4.4c0-2.5,2-4.4,4.4-4.4s4.4,2,4.4,4.4C85.3,325.9,83.3,327.9,80.8,327.9z    M80.8,320c-1.9,0-3.5,1.6-3.5,3.5c0,1.9,1.6,3.5,3.5,3.5s3.5-1.6,3.5-3.5C84.3,321.5,82.7,320,80.8,320z"/>
	<rect x="88.7" y="320.2" class="st0" width="1" height="6.4"/>
	<rect x="90.7" y="320.2" class="st0" width="1" height="6.4"/>
</g>
<g>
	<path class="st0" d="M80.8,341.7c-2.5,0-4.4-2-4.4-4.4c0-2.5,2-4.4,4.4-4.4s4.4,2,4.4,4.4C85.3,339.7,83.3,341.7,80.8,341.7z    M80.8,333.8c-1.9,0-3.5,1.6-3.5,3.5c0,1.9,1.6,3.5,3.5,3.5s3.5-1.6,3.5-3.5C84.3,335.4,82.7,333.8,80.8,333.8z"/>
	<rect x="88.7" y="334.1" class="st0" width="1" height="6.4"/>
	<rect x="90.7" y="334.1" class="st0" width="1" height="6.4"/>
</g>
<g>
	<path class="st0" d="M101.1,341.7c-2.5,0-4.4-2-4.4-4.4c0-2.5,2-4.4,4.4-4.4s4.4,2,4.4,4.4C105.5,339.7,103.5,341.7,101.1,341.7z    M101.1,333.8c-1.9,0-3.5,1.6-3.5,3.5c0,1.9,1.6,3.5,3.5,3.5s3.5-1.6,3.5-3.5C104.5,335.4,103,333.8,101.1,333.8z"/>
	<rect x="109" y="334.1" class="st0" width="1" height="6.4"/>
	<rect x="110.9" y="334.1" class="st0" width="1" height="6.4"/>
</g>
<g>
	<path class="st0" d="M203.7,120.6v4.4h4.9v-4.4H203.7z M207.6,124h-3v-3h3V124z"/>
</g>
<g>
	<path class="st0" d="M217.5,120.6v4.4h4.9v-4.4H217.5z M221.4,124h-3v-3h3V124z"/>
</g>
<g>
	<path class="st0" d="M231.3,120.6v4.4h4.9v-4.4H231.3z M235.3,124h-3v-3h3V124z"/>
</g>
<g>
	<path class="st0" d="M245.1,120.6v4.4h4.9v-4.4H245.1z M249.1,124h-3v-3h3V124z"/>
</g>
<g>
	<path class="st0" d="M259,120.6v4.4h4.9v-4.4H259z M262.9,124h-3v-3h3V124z"/>
</g>
<g>
	<path class="st0" d="M272.8,120.6v4.4h4.9v-4.4H272.8z M276.7,124h-3v-3h3V124z"/>
</g>
<g>
	<path class="st0" d="M286.6,120.6v4.4h4.9v-4.4H286.6z M290.6,124h-3v-3h3V124z"/>
</g>
<g>
	<path class="st0" d="M300.4,120.6v4.4h4.9v-4.4H300.4z M304.4,124h-3v-3h3V124z"/>
</g>
<g>
	<polygon class="st0" points="430.2,152.6 430.2,197.8 377.1,250.8 315.5,250.8 315.5,181.7 281.2,181.7 246.2,216.7 209.4,216.7    156.5,163.8 156.5,152.6 155.5,152.6 155.5,164.2 208.8,217.5 209,217.7 246.6,217.7 281.6,182.7 314.5,182.7 314.5,251.8    377.6,251.8 431.2,198.2 431.2,152.6  "/>
</g>
<g>
	<polygon class="st0" points="498,268.5 492.9,264 498,259.4 498.9,260.1 498.9,258.8 498,258.1 491.5,264 498,269.8 498.9,269.1    498.9,267.8  "/>
	<rect x="498.9" y="231.9" class="st0" width="0" height="1.3"/>
	<polygon class="st0" points="498,232.6 492.9,228 498,223.5 498.9,224.2 498.9,222.9 498,222.2 491.5,228 498,233.9 498.9,233.2    498.9,231.9  "/>
	<rect x="498.9" y="222.9" class="st0" width="0" height="1.3"/>
</g>
<g>
	<polygon class="st0" points="498,304.5 492.9,300 498,295.5 498.9,296.2 498.9,294.9 498,294.2 491.5,300 498,305.8 498.9,305.1    498.9,303.8  "/>
</g>
<g>
	<polygon class="st0" points="481.5,153.3 481.5,152.6 480.8,152.6  "/>
</g>
<polygon class="st0" points="864.4,77.1 846.5,59.1 820.9,59.1 820.9,58.3 846.8,58.3 865,76.5 "/>
<polygon class="st0" points="764.9,59.4 746.4,59.4 723.8,36.8 724.5,36.1 746.8,58.4 764.9,58.4 "/>
<polygon class="st0" points="638,54.8 632.7,50.7 633.3,49.9 638,53.6 642.8,49.9 643.4,50.7 "/>
<polygon class="st0" points="654.7,54.6 649.9,50.9 645.1,54.6 644.5,53.8 649.9,49.7 655.3,53.8 "/>
<polygon class="st0" points="654.7,62.5 649.9,58.8 645.1,62.5 644.5,61.7 649.9,57.6 655.3,61.7 "/>
<polygon class="st0" points="661.7,54.8 656.4,50.7 657,49.9 661.7,53.6 666.5,49.9 667.1,50.7 "/>
<polygon class="st0" points="638,46.9 632.7,42.8 633.3,42 638,45.7 642.8,42 643.4,42.8 "/>
<polygon class="st0" points="654.7,46.7 649.9,43 645.1,46.7 644.5,45.9 649.9,41.8 655.3,45.9 "/>
<polygon class="st0" points="661.7,46.9 656.4,42.8 657,42 661.7,45.7 666.5,42 667.1,42.8 "/>
<polygon class="st0" points="678.4,46.7 673.6,43 668.8,46.7 668.2,45.9 673.6,41.8 679,45.9 "/>
<polygon class="st0" points="638,39 632.7,34.9 633.3,34.1 638,37.8 642.8,34.1 643.4,34.9 "/>
<polygon class="st0" points="654.7,38.8 649.9,35.1 645.1,38.8 644.5,38 649.9,33.9 655.3,38 "/>
<polygon class="st0" points="661.7,39 656.4,34.9 657,34.1 661.7,37.8 666.5,34.1 667.1,34.9 "/>
<polygon class="st0" points="678.4,38.8 673.6,35.1 668.8,38.8 668.2,38 673.6,33.9 679,38 "/>
<polygon class="st0" points="685.4,39 680.1,34.9 680.7,34.1 685.4,37.8 690.2,34.1 690.8,34.9 "/>
<polygon class="st0" points="638,31.1 632.7,27 633.3,26.2 638,29.9 642.8,26.2 643.4,27 "/>
<polygon class="st0" points="654.7,30.9 649.9,27.2 645.1,30.9 644.5,30.1 649.9,26 655.3,30.1 "/>
<polygon class="st0" points="661.7,31.1 656.4,27 657,26.2 661.7,29.9 666.5,26.2 667.1,27 "/>
<polygon class="st0" points="678.4,30.9 673.6,27.2 668.8,30.9 668.2,30.1 673.6,26 679,30.1 "/>
<polygon class="st0" points="638,23.2 632.7,19.1 633.3,18.3 638,22 642.8,18.3 643.4,19.1 "/>
<polygon class="st0" points="631,46.7 626.2,43 621.4,46.7 620.8,45.9 626.2,41.8 631.6,45.9 "/>
<polygon class="st0" points="631,38.8 626.2,35.1 621.4,38.8 620.8,38 626.2,33.9 631.6,38 "/>
<polygon class="st0" points="631,30.9 626.2,27.2 621.4,30.9 620.8,30.1 626.2,26 631.6,30.1 "/>
<polygon class="st0" points="614.3,39 609,34.9 609.6,34.1 614.3,37.8 619.1,34.1 619.7,34.9 "/>
<polygon class="st0" points="654.7,23 649.9,19.3 645.1,23 644.5,22.2 649.9,18.1 655.3,22.2 "/>
<polygon class="st0" points="654.7,15.1 649.9,11.4 645.1,15.1 644.5,14.3 649.9,10.2 655.3,14.3 "/>
<polygon class="st0" points="661.7,23.2 656.4,19.1 657,18.3 661.7,22 666.5,18.3 667.1,19.1 "/>
<g>
	
		<rect x="831.4" y="13.1" transform="matrix(0.7071 -0.7071 0.7071 0.7071 234.7877 594.1105)" class="st0" width="6.4" height="1"/>
	
		<rect x="834.1" y="10.4" transform="matrix(0.7071 -0.7071 0.7071 0.7071 234.8128 594.1365)" class="st0" width="1" height="6.4"/>
</g>
<g>
	
		<rect x="815.6" y="13.1" transform="matrix(0.7071 -0.7071 0.7071 0.7071 230.1608 582.9395)" class="st0" width="6.4" height="1"/>
	
		<rect x="818.3" y="10.4" transform="matrix(0.7071 -0.7071 0.7071 0.7071 230.1853 582.9649)" class="st0" width="1" height="6.4"/>
</g>
<g>
	
		<rect x="799.8" y="13.1" transform="matrix(0.7071 -0.7071 0.7071 0.7071 225.5338 571.7684)" class="st0" width="6.4" height="1"/>
	
		<rect x="802.5" y="10.4" transform="matrix(0.7071 -0.7071 0.7071 0.7071 225.5579 571.7933)" class="st0" width="1" height="6.4"/>
</g>
<g>
	<rect x="784" y="13.1" transform="matrix(0.7071 -0.7071 0.7071 0.7071 220.9069 560.5973)" class="st0" width="6.4" height="1"/>
	
		<rect x="786.7" y="10.4" transform="matrix(0.7071 -0.7071 0.7071 0.7071 220.9305 560.6218)" class="st0" width="1" height="6.4"/>
</g>
<g>
	<rect x="839.3" y="21" transform="matrix(0.7071 -0.7071 0.7071 0.7071 231.5156 602.0096)" class="st0" width="6.4" height="1"/>
	<rect x="842" y="18.3" transform="matrix(0.7071 -0.7071 0.7071 0.7071 231.5407 602.0359)" class="st0" width="1" height="6.4"/>
</g>
<g>
	<rect x="823.5" y="21" transform="matrix(0.7071 -0.7071 0.7071 0.7071 226.8887 590.8385)" class="st0" width="6.4" height="1"/>
	
		<rect x="826.2" y="18.3" transform="matrix(0.7071 -0.7071 0.7071 0.7071 226.9133 590.8644)" class="st0" width="1" height="6.4"/>
</g>
<g>
	<rect x="807.7" y="21" transform="matrix(0.7071 -0.7071 0.7071 0.7071 222.2618 579.6674)" class="st0" width="6.4" height="1"/>
	
		<rect x="810.4" y="18.3" transform="matrix(0.7071 -0.7071 0.7071 0.7071 222.2859 579.6928)" class="st0" width="1" height="6.4"/>
</g>
<g>
	<rect x="791.9" y="21" transform="matrix(0.7071 -0.7071 0.7071 0.7071 217.6348 568.4963)" class="st0" width="6.4" height="1"/>
	
		<rect x="794.6" y="18.3" transform="matrix(0.7071 -0.7071 0.7071 0.7071 217.6584 568.5212)" class="st0" width="1" height="6.4"/>
</g>
<g>
	<rect x="776.1" y="21" transform="matrix(0.7071 -0.7071 0.7071 0.7071 213.0079 557.3253)" class="st0" width="6.4" height="1"/>
	<rect x="778.8" y="18.3" transform="matrix(0.7071 -0.7071 0.7071 0.7071 213.031 557.3497)" class="st0" width="1" height="6.4"/>
</g>
<g>
	
		<rect x="831.4" y="28.9" transform="matrix(0.7071 -0.7071 0.7071 0.7071 223.6166 598.7375)" class="st0" width="6.4" height="1"/>
	
		<rect x="834.1" y="26.2" transform="matrix(0.7071 -0.7071 0.7071 0.7071 223.6412 598.7639)" class="st0" width="1" height="6.4"/>
</g>
<g>
	
		<rect x="847.3" y="13.1" transform="matrix(0.7071 -0.7071 0.7071 0.7071 239.4353 605.3314)" class="st0" width="6.4" height="1"/>
	<rect x="850" y="10.4" transform="matrix(0.7071 -0.7071 0.7071 0.7071 239.4608 605.3578)" class="st0" width="1" height="6.4"/>
</g>
<g>
	<rect x="855.2" y="21" transform="matrix(0.7071 -0.7071 0.7071 0.7071 236.1632 613.2304)" class="st0" width="6.4" height="1"/>
	
		<rect x="857.9" y="18.3" transform="matrix(0.7071 -0.7071 0.7071 0.7071 236.1887 613.2573)" class="st0" width="1" height="6.4"/>
</g>
<g>
	
		<rect x="847.3" y="28.9" transform="matrix(0.7071 -0.7071 0.7071 0.7071 228.2642 609.9584)" class="st0" width="6.4" height="1"/>
	<rect x="850" y="26.2" transform="matrix(0.7071 -0.7071 0.7071 0.7071 228.2892 609.9852)" class="st0" width="1" height="6.4"/>
</g>
<g>
	<rect x="855" y="21" transform="matrix(0.7071 -0.7071 0.7071 0.7071 236.1322 613.1558)" class="st0" width="6.4" height="1"/>
	
		<rect x="857.8" y="18.3" transform="matrix(0.7071 -0.7071 0.7071 0.7071 236.1578 613.1826)" class="st0" width="1" height="6.4"/>
</g>
<g>
	
		<rect x="815.6" y="28.9" transform="matrix(0.7071 -0.7071 0.7071 0.7071 218.9897 587.5664)" class="st0" width="6.4" height="1"/>
	
		<rect x="818.3" y="26.2" transform="matrix(0.7071 -0.7071 0.7071 0.7071 219.0138 587.5923)" class="st0" width="1" height="6.4"/>
</g>
<g>
	
		<rect x="799.8" y="28.9" transform="matrix(0.7071 -0.7071 0.7071 0.7071 214.3628 576.3953)" class="st0" width="6.4" height="1"/>
	
		<rect x="802.5" y="26.2" transform="matrix(0.7071 -0.7071 0.7071 0.7071 214.3864 576.4207)" class="st0" width="1" height="6.4"/>
</g>
<g>
	<rect x="784" y="28.9" transform="matrix(0.7071 -0.7071 0.7071 0.7071 209.7358 565.2242)" class="st0" width="6.4" height="1"/>
	<rect x="786.7" y="26.2" transform="matrix(0.7071 -0.7071 0.7071 0.7071 209.759 565.2491)" class="st0" width="1" height="6.4"/>
</g>
<rect x="481" y="8.2" transform="matrix(0.426 -0.9047 0.9047 0.426 272.5727 446.9366)" class="st0" width="15" height="1"/>
<path class="st0" d="M505.9,14.4l-6.6-5.8l6.6-5.8l6.8,5.8L505.9,14.4z M500.9,8.6l5.1,4.5l5.3-4.5L506,4.1L500.9,8.6z"/>
<polygon class="st0" points="846.6,141.1 846,140.3 851.3,136.2 856.7,140.3 856.1,141.1 851.3,137.4 "/>
<polygon class="st0" points="846.6,145 846,144.3 851.3,140.1 856.7,144.3 856.1,145 851.3,141.4 "/>
<polygon class="st0" points="846.6,149 846,148.2 851.3,144.1 856.7,148.2 856.1,149 851.3,145.3 "/>
<path class="st0" d="M680.2,126l-6.6-5.8l6.6-5.8l6.8,5.8L680.2,126z M675.1,120.1l5.1,4.5l5.3-4.5l-5.3-4.5L675.1,120.1z"/>
<path class="st0" d="M715.7,126l-6.6-5.8l6.6-5.8l6.8,5.8L715.7,126z M710.6,120.1l5.1,4.5l5.3-4.5l-5.3-4.5L710.6,120.1z"/>
<rect x="691.1" y="119.7" class="st0" width="13.8" height="1"/>
<path class="st0" d="M751.3,126l-6.6-5.8l6.6-5.8l6.8,5.8L751.3,126z M746.2,120.1l5.1,4.5l5.3-4.5l-5.3-4.5L746.2,120.1z"/>
<path class="st0" d="M786.8,126l-6.6-5.8l6.6-5.8l6.8,5.8L786.8,126z M781.7,120.1l5.1,4.5l5.3-4.5l-5.3-4.5L781.7,120.1z"/>
<rect x="726.7" y="119.7" class="st0" width="13.8" height="1"/>
<rect x="762.2" y="119.7" class="st0" width="13.8" height="1"/>
<rect x="797.8" y="119.7" class="st0" width="13.8" height="1"/>
<path class="st0" d="M698,139.9l-6.6-5.8l6.6-5.8l6.8,5.8L698,139.9z M692.9,134.1l5.1,4.5l5.3-4.5l-5.3-4.5L692.9,134.1z"/>
<path class="st0" d="M733.5,139.9l-6.6-5.8l6.6-5.8l6.8,5.8L733.5,139.9z M728.4,134.1l5.1,4.5l5.3-4.5l-5.3-4.5L728.4,134.1z"/>
<rect x="708.9" y="133.6" class="st0" width="13.8" height="1"/>
<path class="st0" d="M769,139.9l-6.6-5.8l6.6-5.8l6.8,5.8L769,139.9z M764,134.1l5.1,4.5l5.3-4.5l-5.3-4.5L764,134.1z"/>
<rect x="744.5" y="133.6" class="st0" width="13.8" height="1"/>
<rect x="780" y="133.6" class="st0" width="13.8" height="1"/>
<rect x="503.9" y="96.8" class="st0" width="1" height="6.4"/>
<rect x="494" y="96.8" class="st0" width="1" height="6.4"/>
<rect x="498.9" y="96.8" class="st0" width="1" height="6.4"/>
<rect x="501.4" y="88.9" class="st0" width="1" height="6.4"/>
<rect x="506.3" y="88.9" class="st0" width="1" height="6.4"/>
<rect x="496.5" y="88.9" class="st0" width="1" height="6.4"/>
<rect x="503.9" y="81" class="st0" width="1" height="6.4"/>
<rect x="508.8" y="81" class="st0" width="1" height="6.4"/>
<rect x="494" y="81" class="st0" width="1" height="6.4"/>
<rect x="498.9" y="81" class="st0" width="1" height="6.4"/>
<rect x="501.4" y="73.1" class="st0" width="1" height="6.4"/>
<rect x="506.3" y="73.1" class="st0" width="1" height="6.4"/>
<rect x="496.5" y="73.1" class="st0" width="1" height="6.4"/>
<rect x="503.9" y="65.2" class="st0" width="1" height="6.4"/>
<rect x="494" y="65.2" class="st0" width="1" height="6.4"/>
<rect x="498.9" y="65.2" class="st0" width="1" height="6.4"/>
<path class="st0" d="M893.3,40.8v13.8h-3.9V40.8H893.3 M894.3,39.8h-5.9v15.8h5.9V39.8L894.3,39.8z"/>
<path class="st0" d="M885.4,40.8v13.8h-3.9V40.8H885.4 M886.4,39.8h-5.9v15.8h5.9V39.8L886.4,39.8z"/>
<path class="st0" d="M911.1,48.7v13.8h-3.9V48.7H911.1 M912.1,47.7h-5.9v15.8h5.9V47.7L912.1,47.7z"/>
<path class="st0" d="M903.2,48.7v13.8h-3.9V48.7H903.2 M904.2,47.7h-5.9v15.8h5.9V47.7L904.2,47.7z"/>
<path class="st0" d="M928.9,40.8v13.8h-3.9V40.8H928.9 M929.9,39.8h-5.9v15.8h5.9V39.8L929.9,39.8z"/>
<path class="st0" d="M921,40.8v13.8H917V40.8H921 M922,39.8H916v15.8h5.9V39.8L922,39.8z"/>
<g>
	<path class="st0" d="M551.5,72.8c-2.5,0-4.4-2-4.4-4.4s2-4.4,4.4-4.4c2.5,0,4.4,2,4.4,4.4S554,72.8,551.5,72.8z M551.5,64.9   c-1.9,0-3.5,1.6-3.5,3.5s1.6,3.5,3.5,3.5c1.9,0,3.5-1.6,3.5-3.5S553.4,64.9,551.5,64.9z"/>
	<rect x="559.4" y="65.1" class="st0" width="1" height="6.4"/>
	<rect x="561.4" y="65.1" class="st0" width="1" height="6.4"/>
</g>
<g>
	<path class="st0" d="M551.5,86.6c-2.5,0-4.4-2-4.4-4.4c0-2.5,2-4.4,4.4-4.4c2.5,0,4.4,2,4.4,4.4C556,84.6,554,86.6,551.5,86.6z    M551.5,78.7c-1.9,0-3.5,1.6-3.5,3.5c0,1.9,1.6,3.5,3.5,3.5c1.9,0,3.5-1.6,3.5-3.5C555,80.2,553.4,78.7,551.5,78.7z"/>
	<rect x="559.4" y="78.9" class="st0" width="1" height="6.4"/>
	<rect x="561.4" y="78.9" class="st0" width="1" height="6.4"/>
</g>
<g>
	<path class="st0" d="M551.5,100.4c-2.5,0-4.4-2-4.4-4.4c0-2.5,2-4.4,4.4-4.4c2.5,0,4.4,2,4.4,4.4C556,98.4,554,100.4,551.5,100.4z    M551.5,92.5c-1.9,0-3.5,1.6-3.5,3.5c0,1.9,1.6,3.5,3.5,3.5c1.9,0,3.5-1.6,3.5-3.5C555,94.1,553.4,92.5,551.5,92.5z"/>
	<rect x="559.4" y="92.8" class="st0" width="1" height="6.4"/>
	<rect x="561.4" y="92.8" class="st0" width="1" height="6.4"/>
</g>
<g>
	<path class="st0" d="M551.5,114.2c-2.5,0-4.4-2-4.4-4.4s2-4.4,4.4-4.4c2.5,0,4.4,2,4.4,4.4S554,114.2,551.5,114.2z M551.5,106.3   c-1.9,0-3.5,1.6-3.5,3.5s1.6,3.5,3.5,3.5c1.9,0,3.5-1.6,3.5-3.5S553.4,106.3,551.5,106.3z"/>
	<rect x="559.4" y="106.6" class="st0" width="1" height="6.4"/>
	<rect x="561.4" y="106.6" class="st0" width="1" height="6.4"/>
</g>
<g>
	<path class="st0" d="M571.8,86.6c-2.5,0-4.4-2-4.4-4.4c0-2.5,2-4.4,4.4-4.4c2.5,0,4.4,2,4.4,4.4C576.2,84.6,574.2,86.6,571.8,86.6z    M571.8,78.7c-1.9,0-3.5,1.6-3.5,3.5c0,1.9,1.6,3.5,3.5,3.5c1.9,0,3.5-1.6,3.5-3.5C575.2,80.2,573.7,78.7,571.8,78.7z"/>
	<rect x="579.7" y="78.9" class="st0" width="1" height="6.4"/>
	<rect x="581.7" y="78.9" class="st0" width="1" height="6.4"/>
</g>
<g>
	<path class="st0" d="M571.8,100.4c-2.5,0-4.4-2-4.4-4.4c0-2.5,2-4.4,4.4-4.4c2.5,0,4.4,2,4.4,4.4   C576.2,98.4,574.2,100.4,571.8,100.4z M571.8,92.5c-1.9,0-3.5,1.6-3.5,3.5c0,1.9,1.6,3.5,3.5,3.5c1.9,0,3.5-1.6,3.5-3.5   C575.2,94.1,573.7,92.5,571.8,92.5z"/>
	<rect x="579.7" y="92.8" class="st0" width="1" height="6.4"/>
	<rect x="581.7" y="92.8" class="st0" width="1" height="6.4"/>
</g>
<g>
	<path class="st0" d="M571.8,114.2c-2.5,0-4.4-2-4.4-4.4s2-4.4,4.4-4.4c2.5,0,4.4,2,4.4,4.4S574.2,114.2,571.8,114.2z M571.8,106.3   c-1.9,0-3.5,1.6-3.5,3.5s1.6,3.5,3.5,3.5c1.9,0,3.5-1.6,3.5-3.5S573.7,106.3,571.8,106.3z"/>
	<rect x="579.7" y="106.6" class="st0" width="1" height="6.4"/>
	<rect x="581.7" y="106.6" class="st0" width="1" height="6.4"/>
</g>
<g>
	<path class="st0" d="M571.8,128.1c-2.5,0-4.4-2-4.4-4.4s2-4.4,4.4-4.4c2.5,0,4.4,2,4.4,4.4S574.2,128.1,571.8,128.1z M571.8,120.2   c-1.9,0-3.5,1.6-3.5,3.5s1.6,3.5,3.5,3.5c1.9,0,3.5-1.6,3.5-3.5S573.7,120.2,571.8,120.2z"/>
	<rect x="579.7" y="120.4" class="st0" width="1" height="6.4"/>
	<rect x="581.7" y="120.4" class="st0" width="1" height="6.4"/>
</g>
<g>
	<path class="st0" d="M592,100.4c-2.5,0-4.4-2-4.4-4.4c0-2.5,2-4.4,4.4-4.4s4.4,2,4.4,4.4C596.5,98.4,594.5,100.4,592,100.4z    M592,92.5c-1.9,0-3.5,1.6-3.5,3.5c0,1.9,1.6,3.5,3.5,3.5s3.5-1.6,3.5-3.5C595.5,94.1,593.9,92.5,592,92.5z"/>
	<rect x="599.9" y="92.8" class="st0" width="1" height="6.4"/>
	<rect x="601.9" y="92.8" class="st0" width="1" height="6.4"/>
</g>
<g>
	<path class="st0" d="M592,114.2c-2.5,0-4.4-2-4.4-4.4s2-4.4,4.4-4.4s4.4,2,4.4,4.4S594.5,114.2,592,114.2z M592,106.3   c-1.9,0-3.5,1.6-3.5,3.5s1.6,3.5,3.5,3.5s3.5-1.6,3.5-3.5S593.9,106.3,592,106.3z"/>
	<rect x="599.9" y="106.6" class="st0" width="1" height="6.4"/>
	<rect x="601.9" y="106.6" class="st0" width="1" height="6.4"/>
</g>
<g>
	<path class="st0" d="M592,128.1c-2.5,0-4.4-2-4.4-4.4s2-4.4,4.4-4.4s4.4,2,4.4,4.4S594.5,128.1,592,128.1z M592,120.2   c-1.9,0-3.5,1.6-3.5,3.5s1.6,3.5,3.5,3.5s3.5-1.6,3.5-3.5S593.9,120.2,592,120.2z"/>
	<rect x="599.9" y="120.4" class="st0" width="1" height="6.4"/>
	<rect x="601.9" y="120.4" class="st0" width="1" height="6.4"/>
</g>
<g>
	<path class="st0" d="M592,141.9c-2.5,0-4.4-2-4.4-4.4c0-2.5,2-4.4,4.4-4.4s4.4,2,4.4,4.4C596.5,139.9,594.5,141.9,592,141.9z    M592,134c-1.9,0-3.5,1.6-3.5,3.5c0,1.9,1.6,3.5,3.5,3.5s3.5-1.6,3.5-3.5C595.5,135.5,593.9,134,592,134z"/>
	<rect x="599.9" y="134.2" class="st0" width="1" height="6.4"/>
	<rect x="601.9" y="134.2" class="st0" width="1" height="6.4"/>
</g>
<g>
	<polygon class="st0" points="481.5,21.5 481.5,22.8 485.9,26.6 481.5,30.4 481.5,31.7 487.4,26.6  "/>
</g>
<g>
	<polygon class="st0" points="923.5,133.4 890.6,133.4 865.2,108 864.5,108.7 890.1,134.3 921.1,134.3 904.2,151.2 904.2,152.6    905.2,152.6 905.2,151.6  "/>
</g>
<g>
	<polygon class="st0" points="481.5,151.9 481.5,152.6 482.2,152.6  "/>
</g>
<polygon class="st0" points="764.9,326 746.4,326 723.8,303.4 724.5,302.7 746.8,325.1 764.9,325.1 "/>
<polygon class="st0" points="720.7,268.2 698.4,245.9 675.3,245.9 675.3,244.9 698.8,244.9 721.4,267.5 "/>
<polygon class="st0" points="638,321.4 632.7,317.3 633.3,316.5 638,320.2 642.8,316.5 643.4,317.3 "/>
<polygon class="st0" points="654.7,321.2 649.9,317.5 645.1,321.2 644.5,320.4 649.9,316.3 655.3,320.4 "/>
<polygon class="st0" points="654.7,329.1 649.9,325.4 645.1,329.1 644.5,328.3 649.9,324.2 655.3,328.3 "/>
<polygon class="st0" points="661.7,321.4 656.4,317.3 657,316.5 661.7,320.2 666.5,316.5 667.1,317.3 "/>
<polygon class="st0" points="638,313.5 632.7,309.4 633.3,308.6 638,312.3 642.8,308.6 643.4,309.4 "/>
<polygon class="st0" points="654.7,313.3 649.9,309.6 645.1,313.3 644.5,312.5 649.9,308.4 655.3,312.5 "/>
<polygon class="st0" points="661.7,313.5 656.4,309.4 657,308.6 661.7,312.3 666.5,308.6 667.1,309.4 "/>
<polygon class="st0" points="678.4,313.3 673.6,309.6 668.8,313.3 668.2,312.5 673.6,308.4 679,312.5 "/>
<polygon class="st0" points="638,305.6 632.7,301.5 633.3,300.7 638,304.4 642.8,300.7 643.4,301.5 "/>
<polygon class="st0" points="654.7,305.4 649.9,301.7 645.1,305.4 644.5,304.6 649.9,300.5 655.3,304.6 "/>
<polygon class="st0" points="661.7,305.6 656.4,301.5 657,300.7 661.7,304.4 666.5,300.7 667.1,301.5 "/>
<polygon class="st0" points="678.4,305.4 673.6,301.7 668.8,305.4 668.2,304.6 673.6,300.5 679,304.6 "/>
<polygon class="st0" points="685.4,305.6 680.1,301.5 680.7,300.7 685.4,304.4 690.2,300.7 690.8,301.5 "/>
<polygon class="st0" points="638,297.7 632.7,293.6 633.3,292.8 638,296.5 642.8,292.8 643.4,293.6 "/>
<polygon class="st0" points="654.7,297.5 649.9,293.8 645.1,297.5 644.5,296.7 649.9,292.6 655.3,296.7 "/>
<polygon class="st0" points="661.7,297.7 656.4,293.6 657,292.8 661.7,296.5 666.5,292.8 667.1,293.6 "/>
<polygon class="st0" points="678.4,297.5 673.6,293.8 668.8,297.5 668.2,296.7 673.6,292.6 679,296.7 "/>
<polygon class="st0" points="638,289.8 632.7,285.7 633.3,284.9 638,288.6 642.8,284.9 643.4,285.7 "/>
<polygon class="st0" points="631,313.3 626.2,309.6 621.4,313.3 620.8,312.5 626.2,308.4 631.6,312.5 "/>
<polygon class="st0" points="631,305.4 626.2,301.7 621.4,305.4 620.8,304.6 626.2,300.5 631.6,304.6 "/>
<polygon class="st0" points="631,297.5 626.2,293.8 621.4,297.5 620.8,296.7 626.2,292.6 631.6,296.7 "/>
<polygon class="st0" points="614.3,305.6 609,301.5 609.6,300.7 614.3,304.4 619.1,300.7 619.7,301.5 "/>
<polygon class="st0" points="654.7,289.6 649.9,285.9 645.1,289.6 644.5,288.8 649.9,284.7 655.3,288.8 "/>
<polygon class="st0" points="654.7,281.7 649.9,278 645.1,281.7 644.5,280.9 649.9,276.8 655.3,280.9 "/>
<polygon class="st0" points="661.7,289.8 656.4,285.7 657,284.9 661.7,288.6 666.5,284.9 667.1,285.7 "/>
<path class="st0" d="M577,204l-29.1-29.1c-0.6-0.6-0.9-0.9-1.1-1.2l-19.7,0v-1l20.1,0l0.1,0.1c0,0,30.4,30.4,30.4,30.4L577,204z"/>
<rect x="498.4" y="281.5" transform="matrix(0.426 -0.9047 0.9047 0.426 35.1977 619.5601)" class="st0" width="15" height="1"/>
<rect x="498.4" y="245.5" transform="matrix(0.426 -0.9047 0.9047 0.426 67.8141 598.886)" class="st0" width="15" height="1"/>
<path class="st0" d="M548.4,269.8l-6.6-5.8l6.6-5.8l6.8,5.8L548.4,269.8z M543.3,264l5.1,4.5l5.3-4.5l-5.3-4.5L543.3,264z"/>
<rect x="522.9" y="257.2" class="st0" width="1" height="13.8"/>
<rect x="515.3" y="256.5" transform="matrix(0.9041 -0.4274 0.4274 0.9041 -63.361 245.7501)" class="st0" width="1" height="15"/>
<rect x="523.6" y="263.5" transform="matrix(0.426 -0.9047 0.9047 0.426 65.953 631.9971)" class="st0" width="15" height="1"/>
<path class="st0" d="M523.3,287.8l-6.6-5.8l6.6-5.8l6.8,5.8L523.3,287.8z M518.2,282l5.1,4.5l5.3-4.5l-5.3-4.5L518.2,282z"/>
<path class="st0" d="M523.3,251.8l-6.6-5.8l6.6-5.8l6.8,5.8L523.3,251.8z M518.2,245.9l5.1,4.5l5.3-4.5l-5.3-4.5L518.2,245.9z"/>
<rect x="741.8" y="232.2" class="st0" width="2" height="2"/>
<rect x="737.9" y="232.2" class="st0" width="2" height="2"/>
<rect x="733.9" y="232.2" class="st0" width="2" height="2"/>
<rect x="730" y="232.2" class="st0" width="2" height="2"/>
<rect x="726" y="232.2" class="st0" width="2" height="2"/>
<rect x="745.9" y="232.2" transform="matrix(-1 -4.789559e-11 4.789559e-11 -1 1493.8436 466.3645)" class="st0" width="2" height="2"/>
<rect x="749.9" y="232.2" transform="matrix(-1 -4.329038e-11 4.329038e-11 -1 1501.7432 466.3645)" class="st0" width="2" height="2"/>
<rect x="753.8" y="232.2" transform="matrix(-1 -4.605350e-11 4.605350e-11 -1 1509.6426 466.3645)" class="st0" width="2" height="2"/>
<rect x="757.8" y="232.2" transform="matrix(-1 -4.605350e-11 4.605350e-11 -1 1517.5421 466.3645)" class="st0" width="2" height="2"/>
<rect x="741.8" y="228.2" class="st0" width="2" height="2"/>
<rect x="741.8" y="216.4" class="st0" width="2" height="2"/>
<rect x="741.8" y="220.3" class="st0" width="2" height="2"/>
<rect x="741.8" y="224.3" class="st0" width="2" height="2"/>
<rect x="737.9" y="228.2" class="st0" width="2" height="2"/>
<rect x="737.9" y="220.3" class="st0" width="2" height="2"/>
<rect x="737.9" y="224.3" class="st0" width="2" height="2"/>
<rect x="733.9" y="228.2" class="st0" width="2" height="2"/>
<rect x="733.9" y="224.3" class="st0" width="2" height="2"/>
<rect x="730" y="228.2" class="st0" width="2" height="2"/>
<rect x="745.9" y="228.2" transform="matrix(-1 -4.513246e-11 4.513246e-11 -1 1493.8436 458.465)" class="st0" width="2" height="2"/>
<rect x="745.9" y="220.3" transform="matrix(-1 -4.605350e-11 4.605350e-11 -1 1493.8436 442.666)" class="st0" width="2" height="2"/>
<rect x="745.9" y="224.3" transform="matrix(-1 -4.789559e-11 4.789559e-11 -1 1493.8436 450.5656)" class="st0" width="2" height="2"/>
<rect x="749.9" y="228.2" transform="matrix(-1 -4.329038e-11 4.329038e-11 -1 1501.7432 458.465)" class="st0" width="2" height="2"/>
<rect x="749.9" y="224.3" transform="matrix(-1 -4.697455e-11 4.697455e-11 -1 1501.7432 450.5656)" class="st0" width="2" height="2"/>
<rect x="753.8" y="228.2" transform="matrix(-1 -4.421142e-11 4.421142e-11 -1 1509.6426 458.465)" class="st0" width="2" height="2"/>
<rect x="742" y="236.1" transform="matrix(-1 -1.224647e-16 1.224647e-16 -1 1485.9442 474.264)" class="st0" width="2" height="2"/>
<rect x="745.9" y="236.1" transform="matrix(-1 -1.224647e-16 1.224647e-16 -1 1493.8436 474.264)" class="st0" width="2" height="2"/>
<rect x="749.9" y="236.1" transform="matrix(-1 -1.224647e-16 1.224647e-16 -1 1501.7432 474.264)" class="st0" width="2" height="2"/>
<rect x="753.8" y="236.1" transform="matrix(-1 -1.224647e-16 1.224647e-16 -1 1509.6426 474.264)" class="st0" width="2" height="2"/>
<rect x="757.8" y="236.1" transform="matrix(-1 -1.224647e-16 1.224647e-16 -1 1517.5421 474.264)" class="st0" width="2" height="2"/>
<rect x="737.9" y="236.1" class="st0" width="2" height="2"/>
<rect x="733.9" y="236.1" class="st0" width="2" height="2"/>
<rect x="730" y="236.1" class="st0" width="2" height="2"/>
<rect x="726" y="236.1" class="st0" width="2" height="2"/>
<rect x="742" y="240.1" transform="matrix(-1 -1.224647e-16 1.224647e-16 -1 1485.9442 482.1635)" class="st0" width="2" height="2"/>
<rect x="742" y="251.9" transform="matrix(-1 -1.224647e-16 1.224647e-16 -1 1485.9442 505.862)" class="st0" width="2" height="2"/>
<rect x="742" y="248" transform="matrix(-1 -1.224647e-16 1.224647e-16 -1 1485.9442 497.9625)" class="st0" width="2" height="2"/>
<rect x="742" y="244" transform="matrix(-1 -1.224647e-16 1.224647e-16 -1 1485.9442 490.063)" class="st0" width="2" height="2"/>
<rect x="745.9" y="240.1" transform="matrix(-1 -1.224647e-16 1.224647e-16 -1 1493.8436 482.1635)" class="st0" width="2" height="2"/>
<rect x="745.9" y="248" transform="matrix(-1 -1.224647e-16 1.224647e-16 -1 1493.8436 497.9625)" class="st0" width="2" height="2"/>
<rect x="745.9" y="244" transform="matrix(-1 -1.224647e-16 1.224647e-16 -1 1493.8436 490.063)" class="st0" width="2" height="2"/>
<rect x="749.9" y="240.1" transform="matrix(-1 -1.224647e-16 1.224647e-16 -1 1501.7432 482.1635)" class="st0" width="2" height="2"/>
<rect x="749.9" y="244" transform="matrix(-1 -1.224647e-16 1.224647e-16 -1 1501.7432 490.063)" class="st0" width="2" height="2"/>
<rect x="753.8" y="240.1" transform="matrix(-1 -1.224647e-16 1.224647e-16 -1 1509.6426 482.1635)" class="st0" width="2" height="2"/>
<rect x="737.9" y="240.1" class="st0" width="2" height="2"/>
<rect x="737.9" y="248" class="st0" width="2" height="2"/>
<rect x="737.9" y="244" class="st0" width="2" height="2"/>
<rect x="733.9" y="240.1" class="st0" width="2" height="2"/>
<rect x="733.9" y="244" class="st0" width="2" height="2"/>
<rect x="730" y="240.1" class="st0" width="2" height="2"/>
<polygon class="st0" points="822.9,178.6 822.3,177.8 827.6,173.7 833,177.8 832.4,178.6 827.6,175 "/>
<polygon class="st0" points="822.9,182.6 822.3,181.8 827.6,177.7 833,181.8 832.4,182.6 827.6,178.9 "/>
<polygon class="st0" points="822.9,186.5 822.3,185.7 827.6,181.6 833,185.7 832.4,186.5 827.6,182.9 "/>
<polygon class="st0" points="834.7,178.6 834.1,177.8 839.5,173.7 844.8,177.8 844.2,178.6 839.5,175 "/>
<polygon class="st0" points="834.7,182.6 834.1,181.8 839.5,177.7 844.8,181.8 844.2,182.6 839.5,178.9 "/>
<polygon class="st0" points="834.7,186.5 834.1,185.7 839.5,181.6 844.8,185.7 844.2,186.5 839.5,182.9 "/>
<polygon class="st0" points="846.6,178.6 846,177.8 851.3,173.7 856.7,177.8 856.1,178.6 851.3,175 "/>
<polygon class="st0" points="846.6,182.6 846,181.8 851.3,177.7 856.7,181.8 856.1,182.6 851.3,178.9 "/>
<polygon class="st0" points="846.6,186.5 846,185.7 851.3,181.6 856.7,185.7 856.1,186.5 851.3,182.9 "/>
<polygon class="st0" points="858.4,178.6 857.8,177.8 863.2,173.7 868.5,177.8 867.9,178.6 863.2,175 "/>
<polygon class="st0" points="858.4,182.6 857.8,181.8 863.2,177.7 868.5,181.8 867.9,182.6 863.2,178.9 "/>
<polygon class="st0" points="858.4,186.5 857.8,185.7 863.2,181.6 868.5,185.7 867.9,186.5 863.2,182.9 "/>
<polygon class="st0" points="834.7,159.8 834.1,159.1 839.5,154.9 844.8,159.1 844.2,159.8 839.5,156.2 "/>
<polygon class="st0" points="834.7,163.8 834.1,163 839.5,158.9 844.8,163 844.2,163.8 839.5,160.1 "/>
<polygon class="st0" points="834.7,167.7 834.1,167 839.5,162.8 844.8,167 844.2,167.7 839.5,164.1 "/>
<polygon class="st0" points="846.6,159.8 846,159.1 851.3,154.9 856.7,159.1 856.1,159.8 851.3,156.2 "/>
<polygon class="st0" points="846.6,163.8 846,163 851.3,158.9 856.7,163 856.1,163.8 851.3,160.1 "/>
<polygon class="st0" points="846.6,167.7 846,167 851.3,162.8 856.7,167 856.1,167.7 851.3,164.1 "/>
<polygon class="st0" points="858.4,159.8 857.8,159.1 863.2,154.9 868.5,159.1 867.9,159.8 863.2,156.2 "/>
<polygon class="st0" points="858.4,163.8 857.8,163 863.2,158.9 868.5,163 867.9,163.8 863.2,160.1 "/>
<polygon class="st0" points="858.4,167.7 857.8,167 863.2,162.8 868.5,167 867.9,167.7 863.2,164.1 "/>
<polygon class="st0" points="870.3,178.6 869.6,177.8 875,173.7 880.4,177.8 879.8,178.6 875,175 "/>
<polygon class="st0" points="870.3,182.6 869.6,181.8 875,177.7 880.4,181.8 879.8,182.6 875,178.9 "/>
<polygon class="st0" points="870.3,186.5 869.6,185.7 875,181.6 880.4,185.7 879.8,186.5 875,182.9 "/>
<polygon class="st0" points="834.7,196.9 834.1,196.1 839.5,192 844.8,196.1 844.2,196.9 839.5,193.3 "/>
<polygon class="st0" points="834.7,200.9 834.1,200.1 839.5,196 844.8,200.1 844.2,200.9 839.5,197.2 "/>
<polygon class="st0" points="834.7,204.8 834.1,204 839.5,199.9 844.8,204 844.2,204.8 839.5,201.2 "/>
<polygon class="st0" points="846.6,196.9 846,196.1 851.3,192 856.7,196.1 856.1,196.9 851.3,193.3 "/>
<polygon class="st0" points="846.6,200.9 846,200.1 851.3,196 856.7,200.1 856.1,200.9 851.3,197.2 "/>
<polygon class="st0" points="846.6,204.8 846,204 851.3,199.9 856.7,204 856.1,204.8 851.3,201.2 "/>
<polygon class="st0" points="858.4,196.9 857.8,196.1 863.2,192 868.5,196.1 867.9,196.9 863.2,193.3 "/>
<polygon class="st0" points="858.4,200.9 857.8,200.1 863.2,196 868.5,200.1 867.9,200.9 863.2,197.2 "/>
<polygon class="st0" points="858.4,204.8 857.8,204 863.2,199.9 868.5,204 867.9,204.8 863.2,201.2 "/>
<polygon class="st0" points="846.6,215.1 846,214.3 851.3,210.2 856.7,214.3 856.1,215.1 851.3,211.4 "/>
<polygon class="st0" points="846.6,219 846,218.3 851.3,214.1 856.7,218.3 856.1,219 851.3,215.4 "/>
<polygon class="st0" points="846.6,223 846,222.2 851.3,218.1 856.7,222.2 856.1,223 851.3,219.3 "/>
<g>
	<polygon class="st0" points="498.9,294.9 498.9,296.2 503.3,300 498.9,303.8 498.9,305.1 504.8,300  "/>
</g>
<polygon class="st0" points="498.9,258.8 498.9,260.1 503.3,264 498.9,267.8 498.9,269.1 504.8,264 "/>
<polygon class="st0" points="498.9,222.9 498.9,224.2 503.3,228 498.9,231.9 498.9,233.2 504.8,228 "/>
<g>
	<polygon class="st0" points="491.1,161.5 482.2,152.6 481.5,152.6 481.5,153.3 490.4,162.2  "/>
</g>
<g>
	<polygon class="st0" points="904.2,152.6 904.2,197.8 851.1,250.8 789.5,250.8 789.5,181.7 755.1,181.7 720.1,216.7 683.4,216.7    630.5,163.8 630.5,152.6 629.5,152.6 629.5,164.2 682.8,217.5 683,217.7 720.5,217.7 755.5,182.7 788.5,182.7 788.5,251.8    851.5,251.8 905.2,198.2 905.2,152.6  "/>
</g>
<g>
	<polygon class="st0" points="724.4,32.9 702.6,24.6 703,23.7 724.2,31.8 734.6,21.9 735.2,22.6  "/>
	<polygon class="st0" points="707.6,15.2 706.9,14.5 717.7,4.1 739.5,12.4 739.2,13.3 718,5.3  "/>
</g>
<polygon class="st0" points="724.5,23.9 723.7,23.3 727.4,18.5 723.7,13.8 724.5,13.2 728.6,18.5 "/>
<polygon class="st0" points="717.7,23.9 713.5,18.5 717.7,13.2 718.4,13.8 714.8,18.5 718.4,23.3 "/>
<g>
	<path class="st0" d="M722.1,20.1H722c-0.1,0.3-0.3,0.5-0.6,0.7s-0.6,0.3-0.9,0.3c-0.3,0-0.5,0-0.7-0.1c-0.2-0.1-0.4-0.2-0.5-0.3   c-0.1-0.1-0.3-0.3-0.3-0.5c-0.1-0.2-0.1-0.4-0.1-0.6v-0.1c0-0.2,0-0.4,0.1-0.6c0.1-0.2,0.2-0.3,0.4-0.5c0.2-0.1,0.3-0.2,0.5-0.3   c0.2-0.1,0.4-0.1,0.7-0.1h1.6v-0.2c0-0.1,0-0.3-0.1-0.4c0-0.1-0.1-0.3-0.2-0.4c-0.1-0.1-0.2-0.2-0.4-0.3c-0.2-0.1-0.3-0.1-0.6-0.1   c-0.3,0-0.6,0.1-0.8,0.3c-0.2,0.2-0.3,0.4-0.4,0.8l-0.7-0.2c0-0.2,0.1-0.4,0.2-0.6c0.1-0.2,0.2-0.4,0.4-0.5   c0.2-0.1,0.4-0.3,0.6-0.4c0.2-0.1,0.5-0.1,0.8-0.1c0.3,0,0.6,0,0.8,0.1c0.3,0.1,0.5,0.2,0.6,0.4s0.3,0.4,0.4,0.6   c0.1,0.2,0.1,0.5,0.1,0.7V20c0,0.2,0.1,0.3,0.3,0.3h0.2V21h-0.5c-0.2,0-0.4-0.1-0.5-0.2C722.2,20.6,722.1,20.4,722.1,20.1   L722.1,20.1z M720.5,20.4c0.5,0,0.9-0.1,1.2-0.4c0.3-0.3,0.4-0.7,0.4-1.1v-0.1h-1.5c-0.3,0-0.6,0.1-0.8,0.2   c-0.2,0.1-0.3,0.4-0.3,0.6c0,0.2,0.1,0.4,0.3,0.6C720,20.3,720.2,20.4,720.5,20.4z"/>
</g>
<path class="st0" d="M803.3,59.4h9.4v-1h-9.4v-5.4l9.6-4.5l-0.4-0.9l-9.2,4.3v-0.4h-20.7V52l-9.2-4.3l-0.4,0.9l9.6,4.5v5.4h-9.4v1  h9.4v5.4l-9.6,4.5l0.4,0.9l9.2-4.3v0.4h6.5l3.8-1.9l3.8,1.9h6.5v-0.4l9.2,4.3l0.4-0.9l-9.6-4.5V59.4z M789.5,58.9  c0-1.9,1.6-3.5,3.5-3.5c1.9,0,3.5,1.6,3.5,3.5c0,1.9-1.6,3.5-3.5,3.5C791,62.4,789.5,60.8,789.5,58.9z M797,65.4l-3.9-2  c2.4-0.1,4.3-2,4.3-4.4c0-2.5-2-4.4-4.4-4.4c-2.5,0-4.4,2-4.4,4.4c0,2.4,1.9,4.4,4.3,4.4l-3.9,2h-5.1l3.2-1.5l-0.4-0.9l-3,1.4v-4.9  h3.5v-1h-3.5v-4.9l3,1.4L787,54l-3.2-1.5h18.4l-3.2,1.5l0.4,0.9l3-1.4v4.9h-3.5v1h3.5v4.9l-3-1.4l-0.4,0.9l3.2,1.5H797z"/>
<path class="st0" d="M936.7,123c-6,0-10.9,4.9-10.9,10.9c0,6,4.9,10.9,10.9,10.9c6,0,10.9-4.9,10.9-10.9  C947.6,127.8,942.7,123,936.7,123z M946.5,132.4h-5.6c-0.4-1.3-1.4-2.3-2.7-2.7v-5.6C942.4,124.7,945.8,128.1,946.5,132.4z   M946.6,133.8c0,0.2,0,0.3,0,0.5h-5.4c0-0.2,0-0.3,0-0.5c0-0.2,0-0.3,0-0.5h5.4C946.6,133.5,946.6,133.7,946.6,133.8z M936.7,137.3  c-1.9,0-3.5-1.6-3.5-3.5c0-1.9,1.6-3.5,3.5-3.5c1.9,0,3.5,1.6,3.5,3.5C940.2,135.8,938.6,137.3,936.7,137.3z M937.2,124v5.4  c-0.2,0-0.3,0-0.5,0c-0.2,0-0.3,0-0.5,0V124c0.2,0,0.3,0,0.5,0C936.9,124,937,124,937.2,124z M935.2,124.1v5.6  c-1.3,0.4-2.3,1.4-2.7,2.7H927C927.6,128.1,931,124.7,935.2,124.1z M932.3,134.3h-5.4c0-0.2,0-0.3,0-0.5c0-0.2,0-0.3,0-0.5h5.4  c0,0.2,0,0.3,0,0.5C932.3,134,932.3,134.2,932.3,134.3z M927,135.3h5.6c0.4,1.3,1.4,2.3,2.7,2.7v5.6C931,143,927.6,139.6,927,135.3z   M936.2,143.7v-5.4c0.2,0,0.3,0,0.5,0c0.2,0,0.3,0,0.5,0v5.4c-0.2,0-0.3,0-0.5,0C936.5,143.7,936.4,143.7,936.2,143.7z M938.2,143.6  V138c1.3-0.4,2.3-1.4,2.7-2.7h5.6C945.8,139.6,942.4,143,938.2,143.6z"/>
<g>
	<path class="st0" d="M876.7,82.3c-8-5.4-16.2-5.4-24.2,0l-0.2,0.1v24.4h24.6V82.4L876.7,82.3z M864.6,79.2c3.8,0,7.6,1.3,11.4,3.8   v22.3l-3-3V84.4l-0.3-0.1c-5.4-2.7-10.9-2.7-16.2,0l-0.3,0.1v17.9l-3,3V82.9C857,80.4,860.8,79.2,864.6,79.2z M856.9,102.9h15.4   l3,3h-21.4L856.9,102.9z M857.2,102V85c4.9-2.4,9.9-2.4,14.8,0v17H857.2z"/>
	<path class="st0" d="M858.7,94.5h11.8v-7.9h-11.8V94.5z M859.7,87.6h9.9v5.9h-9.9V87.6z"/>
</g>
<g>
	<polygon class="st0" points="250.5,32.9 228.7,24.6 229,23.7 250.2,31.8 260.6,21.9 261.3,22.6  "/>
	<polygon class="st0" points="233.6,15.2 232.9,14.5 243.8,4.1 265.6,12.4 265.2,13.3 244,5.3  "/>
</g>
<polygon class="st0" points="250.5,23.9 249.7,23.3 253.4,18.5 249.7,13.8 250.5,13.2 254.6,18.5 "/>
<polygon class="st0" points="243.7,23.9 239.6,18.5 243.7,13.2 244.5,13.8 240.8,18.5 244.5,23.3 "/>
<g>
	<path class="st0" d="M248.1,20.1H248c-0.1,0.3-0.3,0.5-0.6,0.7c-0.3,0.2-0.6,0.3-0.9,0.3c-0.3,0-0.5,0-0.7-0.1   c-0.2-0.1-0.4-0.2-0.5-0.3c-0.1-0.1-0.3-0.3-0.3-0.5c-0.1-0.2-0.1-0.4-0.1-0.6v-0.1c0-0.2,0-0.4,0.1-0.6c0.1-0.2,0.2-0.3,0.4-0.5   c0.2-0.1,0.3-0.2,0.5-0.3c0.2-0.1,0.4-0.1,0.7-0.1h1.6v-0.2c0-0.1,0-0.3-0.1-0.4c0-0.1-0.1-0.3-0.2-0.4c-0.1-0.1-0.2-0.2-0.4-0.3   c-0.2-0.1-0.3-0.1-0.6-0.1c-0.3,0-0.6,0.1-0.8,0.3c-0.2,0.2-0.3,0.4-0.4,0.8l-0.7-0.2c0-0.2,0.1-0.4,0.2-0.6   c0.1-0.2,0.2-0.4,0.4-0.5c0.2-0.1,0.4-0.3,0.6-0.4c0.2-0.1,0.5-0.1,0.8-0.1c0.3,0,0.6,0,0.8,0.1c0.3,0.1,0.5,0.2,0.6,0.4   c0.2,0.2,0.3,0.4,0.4,0.6c0.1,0.2,0.1,0.5,0.1,0.7V20c0,0.2,0.1,0.3,0.3,0.3h0.2V21h-0.5c-0.2,0-0.4-0.1-0.5-0.2   C248.2,20.6,248.1,20.4,248.1,20.1L248.1,20.1z M246.6,20.4c0.5,0,0.9-0.1,1.2-0.4c0.3-0.3,0.4-0.7,0.4-1.1v-0.1h-1.5   c-0.3,0-0.6,0.1-0.8,0.2c-0.2,0.1-0.3,0.4-0.3,0.6c0,0.2,0.1,0.4,0.3,0.6C246,20.3,246.2,20.4,246.6,20.4z"/>
</g>
<path class="st0" d="M329.4,59.4h9.4v-1h-9.4v-5.4l9.6-4.5l-0.4-0.9l-9.2,4.3v-0.4h-20.7V52l-9.2-4.3l-0.4,0.9l9.6,4.5v5.4h-9.4v1  h9.4v5.4l-9.6,4.5l0.4,0.9l9.2-4.3v0.4h6.5l3.8-1.9l3.8,1.9h6.5v-0.4l9.2,4.3l0.4-0.9l-9.6-4.5V59.4z M315.5,58.9  c0-1.9,1.6-3.5,3.5-3.5c1.9,0,3.5,1.6,3.5,3.5c0,1.9-1.6,3.5-3.5,3.5C317.1,62.4,315.5,60.8,315.5,58.9z M323,65.4l-3.9-2  c2.4-0.1,4.3-2,4.3-4.4c0-2.5-2-4.4-4.4-4.4s-4.4,2-4.4,4.4c0,2.4,1.9,4.4,4.3,4.4l-3.9,2h-5.1l3.2-1.5l-0.4-0.9l-3,1.4v-4.9h3.5v-1  h-3.5v-4.9l3,1.4L313,54l-3.2-1.5h18.4l-3.2,1.5l0.4,0.9l3-1.4v4.9h-3.5v1h3.5v4.9l-3-1.4l-0.4,0.9l3.2,1.5H323z"/>
<path class="st0" d="M462.7,123c-6,0-10.9,4.9-10.9,10.9c0,6,4.9,10.9,10.9,10.9c6,0,10.9-4.9,10.9-10.9  C473.6,127.8,468.7,123,462.7,123z M472.5,132.4h-5.6c-0.4-1.3-1.4-2.3-2.7-2.7v-5.6C468.5,124.7,471.8,128.1,472.5,132.4z   M472.6,133.8c0,0.2,0,0.3,0,0.5h-5.4c0-0.2,0-0.3,0-0.5c0-0.2,0-0.3,0-0.5h5.4C472.6,133.5,472.6,133.7,472.6,133.8z M462.7,137.3  c-1.9,0-3.5-1.6-3.5-3.5c0-1.9,1.6-3.5,3.5-3.5c1.9,0,3.5,1.6,3.5,3.5C466.2,135.8,464.6,137.3,462.7,137.3z M463.2,124v5.4  c-0.2,0-0.3,0-0.5,0c-0.2,0-0.3,0-0.5,0V124c0.2,0,0.3,0,0.5,0C462.9,124,463.1,124,463.2,124z M461.3,124.1v5.6  c-1.3,0.4-2.3,1.4-2.7,2.7H453C453.6,128.1,457,124.7,461.3,124.1z M458.3,134.3h-5.4c0-0.2,0-0.3,0-0.5c0-0.2,0-0.3,0-0.5h5.4  c0,0.2,0,0.3,0,0.5C458.3,134,458.3,134.2,458.3,134.3z M453,135.3h5.6c0.4,1.3,1.4,2.3,2.7,2.7v5.6C457,143,453.6,139.6,453,135.3z   M462.2,143.7v-5.4c0.2,0,0.3,0,0.5,0c0.2,0,0.3,0,0.5,0v5.4c-0.2,0-0.3,0-0.5,0C462.6,143.7,462.4,143.7,462.2,143.7z M464.2,143.6  V138c1.3-0.4,2.3-1.4,2.7-2.7h5.6C471.8,139.6,468.5,143,464.2,143.6z"/>
<g>
	<path class="st0" d="M402.7,82.3c-8-5.4-16.2-5.4-24.2,0l-0.2,0.1v24.4h24.6V82.4L402.7,82.3z M390.6,79.2c3.8,0,7.6,1.3,11.4,3.8   v22.3l-3-3V84.4l-0.3-0.1c-5.4-2.7-10.9-2.7-16.2,0l-0.3,0.1v17.9l-3,3V82.9C383,80.4,386.9,79.2,390.6,79.2z M382.9,102.9h15.4   l3,3h-21.4L382.9,102.9z M383.2,102V85c4.9-2.4,9.9-2.4,14.8,0v17H383.2z"/>
	<path class="st0" d="M384.7,94.5h11.8v-7.9h-11.8V94.5z M385.7,87.6h9.9v5.9h-9.9V87.6z"/>
</g>
<path class="st0" d="M37,187.2l-22.1-8.4l1.4-13.7l19-5.1l12.8,16.6L37,187.2z M16,178.1l20.9,7.9l10-9.6L35,161.1l-17.8,4.8  L16,178.1z"/>
<path class="st0" d="M33.7,170.9h-4.9v-4.9h4.9V170.9z M29.8,169.9h3v-3h-3V169.9z"/>
<path class="st0" d="M33.7,180.7h-4.9v-4.9h4.9V180.7z M29.8,179.8h3v-3h-3V179.8z"/>
<rect x="30.4" y="172.2" class="st0" width="2" height="2"/>
<rect x="34.8" y="167.3" class="st0" width="2" height="2"/>
<rect x="25.7" y="167.3" class="st0" width="2" height="2"/>
<rect x="34.8" y="177.3" class="st0" width="2" height="2"/>
<rect x="25.7" y="177.3" class="st0" width="2" height="2"/>
<g>
	<path class="st0" d="M110.3,207.5v3.9H96.4v-3.9H110.3 M111.3,206.5H95.5v5.9h15.8V206.5L111.3,206.5z"/>
	<path class="st0" d="M110.3,215.4v3.9H96.4v-3.9H110.3 M111.3,214.4H95.5v5.9h15.8V214.4L111.3,214.4z"/>
</g>
<rect x="79.7" y="212.7" class="st0" width="13.8" height="1"/>
<rect x="86" y="198" transform="matrix(0.4274 -0.9041 0.9041 0.4274 -136.3181 195.8445)" class="st0" width="1" height="15"/>
<rect x="78.9" y="220.4" transform="matrix(0.9046 -0.4262 0.4262 0.9046 -85.8883 57.9113)" class="st0" width="15" height="1"/>
<rect x="113.2" y="212.7" class="st0" width="13.8" height="1"/>
<rect x="112.8" y="205" transform="matrix(0.9041 -0.4273 0.4273 0.9041 -76.2876 71.09)" class="st0" width="15" height="1"/>
<rect x="119.8" y="213.3" transform="matrix(0.4261 -0.9047 0.9047 0.4261 -130.7792 235.5534)" class="st0" width="1" height="15"/>
<g>
	<polygon class="st0" points="250.5,299.5 228.7,291.2 229,290.3 250.2,298.4 260.6,288.5 261.3,289.2  "/>
	<polygon class="st0" points="233.6,281.8 232.9,281.1 243.8,270.7 265.6,279 265.2,279.9 244,271.9  "/>
</g>
<polygon class="st0" points="250.5,290.5 249.7,289.9 253.4,285.1 249.7,280.4 250.5,279.8 254.6,285.1 "/>
<polygon class="st0" points="243.7,290.5 239.6,285.1 243.7,279.8 244.5,280.4 240.8,285.1 244.5,289.9 "/>
<g>
	<path class="st0" d="M248.1,286.8H248c-0.1,0.3-0.3,0.5-0.6,0.7c-0.3,0.2-0.6,0.3-0.9,0.3c-0.3,0-0.5,0-0.7-0.1   c-0.2-0.1-0.4-0.2-0.5-0.3c-0.1-0.1-0.3-0.3-0.3-0.5c-0.1-0.2-0.1-0.4-0.1-0.6v-0.1c0-0.2,0-0.4,0.1-0.6c0.1-0.2,0.2-0.3,0.4-0.5   c0.2-0.1,0.3-0.2,0.5-0.3c0.2-0.1,0.4-0.1,0.7-0.1h1.6v-0.2c0-0.1,0-0.3-0.1-0.4c0-0.1-0.1-0.3-0.2-0.4c-0.1-0.1-0.2-0.2-0.4-0.3   c-0.2-0.1-0.3-0.1-0.6-0.1c-0.3,0-0.6,0.1-0.8,0.3c-0.2,0.2-0.3,0.4-0.4,0.8l-0.7-0.2c0-0.2,0.1-0.4,0.2-0.6   c0.1-0.2,0.2-0.4,0.4-0.5c0.2-0.1,0.4-0.3,0.6-0.4c0.2-0.1,0.5-0.1,0.8-0.1c0.3,0,0.6,0,0.8,0.1c0.3,0.1,0.5,0.2,0.6,0.4   c0.2,0.2,0.3,0.4,0.4,0.6c0.1,0.2,0.1,0.5,0.1,0.7v2.2c0,0.2,0.1,0.3,0.3,0.3h0.2v0.7h-0.5c-0.2,0-0.4-0.1-0.5-0.2   C248.2,287.2,248.1,287,248.1,286.8L248.1,286.8z M246.6,287c0.5,0,0.9-0.1,1.2-0.4c0.3-0.3,0.4-0.7,0.4-1.1v-0.1h-1.5   c-0.3,0-0.6,0.1-0.8,0.2c-0.2,0.1-0.3,0.4-0.3,0.6c0,0.2,0.1,0.4,0.3,0.6C246,286.9,246.2,287,246.6,287z"/>
</g>
<path class="st0" d="M329.4,326h9.4v-1h-9.4v-5.4l9.6-4.5l-0.4-0.9l-9.2,4.3v-0.4h-20.7v0.4l-9.2-4.3l-0.4,0.9l9.6,4.5v5.4h-9.4v1  h9.4v5.4L299,336l0.4,0.9l9.2-4.3v0.4h6.5l3.8-1.9l3.8,1.9h6.5v-0.4l9.2,4.3l0.4-0.9l-9.6-4.5V326z M315.5,325.5  c0-1.9,1.6-3.5,3.5-3.5c1.9,0,3.5,1.6,3.5,3.5s-1.6,3.5-3.5,3.5C317.1,329,315.5,327.5,315.5,325.5z M323,332l-3.9-2  c2.4-0.1,4.3-2,4.3-4.4c0-2.5-2-4.4-4.4-4.4s-4.4,2-4.4,4.4c0,2.4,1.9,4.4,4.3,4.4l-3.9,2h-5.1l3.2-1.5l-0.4-0.9l-3,1.4V326h3.5v-1  h-3.5v-4.9l3,1.4l0.4-0.9l-3.2-1.5h18.4l-3.2,1.5l0.4,0.9l3-1.4v4.9h-3.5v1h3.5v4.9l-3-1.4l-0.4,0.9l3.2,1.5H323z"/>
<path class="st0" d="M177.1,241.6c2.2,0,3.9,1.8,3.9,3.9c0,2.2-1.8,3.9-3.9,3.9s-3.9-1.8-3.9-3.9  C173.1,243.3,174.9,241.6,177.1,241.6 M177.1,240.6c-2.7,0-4.9,2.2-4.9,4.9c0,2.7,2.2,4.9,4.9,4.9c2.7,0,4.9-2.2,4.9-4.9  C182,242.8,179.8,240.6,177.1,240.6L177.1,240.6z"/>
<path class="st0" d="M165.5,240.3c2.9,0,5.2,2.3,5.2,5.2s-2.3,5.2-5.2,5.2c-2.9,0-5.2-2.3-5.2-5.2S162.6,240.3,165.5,240.3   M165.5,239.3c-3.4,0-6.2,2.8-6.2,6.2c0,3.4,2.8,6.2,6.2,6.2c3.4,0,6.2-2.8,6.2-6.2C171.6,242.1,168.9,239.3,165.5,239.3  L165.5,239.3z"/>
<path class="st0" d="M188.7,240.3c2.9,0,5.2,2.3,5.2,5.2s-2.3,5.2-5.2,5.2c-2.9,0-5.2-2.3-5.2-5.2S185.8,240.3,188.7,240.3   M188.7,239.3c-3.4,0-6.2,2.8-6.2,6.2c0,3.4,2.8,6.2,6.2,6.2s6.2-2.8,6.2-6.2C194.9,242.1,192.1,239.3,188.7,239.3L188.7,239.3z"/>
<rect x="176.6" y="230.7" class="st0" width="1" height="7.9"/>
<polygon class="st0" points="181.9,240.7 180.9,240.4 182.4,234.9 189,231.1 189.5,232 183.2,235.6 "/>
<polygon class="st0" points="172.2,240.7 170.9,235.6 164.6,232 165.1,231.1 171.7,234.9 173.2,240.4 "/>
<rect x="176.5" y="252.4" class="st0" width="1" height="7.9"/>
<polygon class="st0" points="165.1,259.9 164.6,259 170.9,255.4 172.2,250.3 173.2,250.6 171.7,256.1 "/>
<polygon class="st0" points="189,259.9 182.4,256.1 180.9,250.6 181.9,250.3 183.2,255.4 189.5,259 "/>
<path class="st0" d="M511,187.2l-22.1-8.4l1.4-13.7l19-5.1l12.8,16.6L511,187.2z M489.9,178.1l20.9,7.9l10-9.6L509,161.1l-17.8,4.8  L489.9,178.1z"/>
<path class="st0" d="M507.7,170.9h-4.9v-4.9h4.9V170.9z M503.8,169.9h3v-3h-3V169.9z"/>
<path class="st0" d="M507.7,180.7h-4.9v-4.9h4.9V180.7z M503.8,179.8h3v-3h-3V179.8z"/>
<rect x="504.4" y="172.2" class="st0" width="2" height="2"/>
<rect x="508.8" y="167.3" class="st0" width="2" height="2"/>
<rect x="499.7" y="167.3" class="st0" width="2" height="2"/>
<rect x="508.8" y="177.3" class="st0" width="2" height="2"/>
<rect x="499.7" y="177.3" class="st0" width="2" height="2"/>
<g>
	<path class="st0" d="M584.2,207.5v3.9h-13.8v-3.9H584.2 M585.2,206.5h-15.8v5.9h15.8V206.5L585.2,206.5z"/>
	<path class="st0" d="M584.2,215.4v3.9h-13.8v-3.9H584.2 M585.2,214.4h-15.8v5.9h15.8V214.4L585.2,214.4z"/>
</g>
<rect x="553.6" y="212.7" class="st0" width="13.8" height="1"/>
<rect x="559.9" y="198" transform="matrix(0.4274 -0.9041 0.9041 0.4274 135.0864 624.347)" class="st0" width="1" height="15"/>
<rect x="552.9" y="220.4" transform="matrix(0.9046 -0.4262 0.4262 0.9046 -40.6783 259.9322)" class="st0" width="15" height="1"/>
<rect x="587.2" y="212.7" class="st0" width="13.8" height="1"/>
<rect x="586.7" y="205" transform="matrix(0.9041 -0.4273 0.4273 0.9041 -30.8462 273.601)" class="st0" width="15" height="1"/>
<rect x="593.7" y="213.3" transform="matrix(0.4261 -0.9047 0.9047 0.4261 141.2443 664.348)" class="st0" width="1" height="15"/>
<g>
	<polygon class="st0" points="724.4,299.5 702.6,291.2 703,290.3 724.2,298.4 734.6,288.5 735.2,289.2  "/>
	<polygon class="st0" points="707.6,281.8 706.9,281.1 717.7,270.7 739.5,279 739.2,279.9 718,271.9  "/>
</g>
<polygon class="st0" points="724.5,290.5 723.7,289.9 727.4,285.1 723.7,280.4 724.5,279.8 728.6,285.1 "/>
<polygon class="st0" points="717.7,290.5 713.5,285.1 717.7,279.8 718.4,280.4 714.8,285.1 718.4,289.9 "/>
<g>
	<path class="st0" d="M722.1,286.8H722c-0.1,0.3-0.3,0.5-0.6,0.7c-0.3,0.2-0.6,0.3-0.9,0.3c-0.3,0-0.5,0-0.7-0.1   c-0.2-0.1-0.4-0.2-0.5-0.3c-0.1-0.1-0.3-0.3-0.3-0.5c-0.1-0.2-0.1-0.4-0.1-0.6v-0.1c0-0.2,0-0.4,0.1-0.6c0.1-0.2,0.2-0.3,0.4-0.5   c0.2-0.1,0.3-0.2,0.5-0.3c0.2-0.1,0.4-0.1,0.7-0.1h1.6v-0.2c0-0.1,0-0.3-0.1-0.4c0-0.1-0.1-0.3-0.2-0.4c-0.1-0.1-0.2-0.2-0.4-0.3   c-0.2-0.1-0.3-0.1-0.6-0.1c-0.3,0-0.6,0.1-0.8,0.3c-0.2,0.2-0.3,0.4-0.4,0.8l-0.7-0.2c0-0.2,0.1-0.4,0.2-0.6   c0.1-0.2,0.2-0.4,0.4-0.5c0.2-0.1,0.4-0.3,0.6-0.4c0.2-0.1,0.5-0.1,0.8-0.1c0.3,0,0.6,0,0.8,0.1c0.3,0.1,0.5,0.2,0.6,0.4   s0.3,0.4,0.4,0.6c0.1,0.2,0.1,0.5,0.1,0.7v2.2c0,0.2,0.1,0.3,0.3,0.3h0.2v0.7h-0.5c-0.2,0-0.4-0.1-0.5-0.2   C722.2,287.2,722.1,287,722.1,286.8L722.1,286.8z M720.5,287c0.5,0,0.9-0.1,1.2-0.4c0.3-0.3,0.4-0.7,0.4-1.1v-0.1h-1.5   c-0.3,0-0.6,0.1-0.8,0.2c-0.2,0.1-0.3,0.4-0.3,0.6c0,0.2,0.1,0.4,0.3,0.6C720,286.9,720.2,287,720.5,287z"/>
</g>
<path class="st0" d="M803.3,326h9.4v-1h-9.4v-5.4l9.6-4.5l-0.4-0.9l-9.2,4.3v-0.4h-20.7v0.4l-9.2-4.3l-0.4,0.9l9.6,4.5v5.4h-9.4v1  h9.4v5.4L773,336l0.4,0.9l9.2-4.3v0.4h6.5l3.8-1.9l3.8,1.9h6.5v-0.4l9.2,4.3l0.4-0.9l-9.6-4.5V326z M789.5,325.5  c0-1.9,1.6-3.5,3.5-3.5c1.9,0,3.5,1.6,3.5,3.5s-1.6,3.5-3.5,3.5C791,329,789.5,327.5,789.5,325.5z M797,332l-3.9-2  c2.4-0.1,4.3-2,4.3-4.4c0-2.5-2-4.4-4.4-4.4c-2.5,0-4.4,2-4.4,4.4c0,2.4,1.9,4.4,4.3,4.4l-3.9,2h-5.1l3.2-1.5l-0.4-0.9l-3,1.4V326  h3.5v-1h-3.5v-4.9l3,1.4l0.4-0.9l-3.2-1.5h18.4l-3.2,1.5l0.4,0.9l3-1.4v4.9h-3.5v1h3.5v4.9l-3-1.4l-0.4,0.9l3.2,1.5H797z"/>
<path class="st0" d="M651,241.6c2.2,0,3.9,1.8,3.9,3.9c0,2.2-1.8,3.9-3.9,3.9c-2.2,0-3.9-1.8-3.9-3.9  C647.1,243.3,648.9,241.6,651,241.6 M651,240.6c-2.7,0-4.9,2.2-4.9,4.9c0,2.7,2.2,4.9,4.9,4.9c2.7,0,4.9-2.2,4.9-4.9  C656,242.8,653.8,240.6,651,240.6L651,240.6z"/>
<path class="st0" d="M639.4,240.3c2.9,0,5.2,2.3,5.2,5.2s-2.3,5.2-5.2,5.2c-2.9,0-5.2-2.3-5.2-5.2S636.6,240.3,639.4,240.3   M639.4,239.3c-3.4,0-6.2,2.8-6.2,6.2c0,3.4,2.8,6.2,6.2,6.2c3.4,0,6.2-2.8,6.2-6.2C645.6,242.1,642.9,239.3,639.4,239.3  L639.4,239.3z"/>
<path class="st0" d="M662.6,240.3c2.9,0,5.2,2.3,5.2,5.2s-2.3,5.2-5.2,5.2c-2.9,0-5.2-2.3-5.2-5.2S659.8,240.3,662.6,240.3   M662.6,239.3c-3.4,0-6.2,2.8-6.2,6.2c0,3.4,2.8,6.2,6.2,6.2c3.4,0,6.2-2.8,6.2-6.2C668.8,242.1,666.1,239.3,662.6,239.3  L662.6,239.3z"/>
<rect x="650.6" y="230.7" class="st0" width="1" height="7.9"/>
<polygon class="st0" points="655.8,240.7 654.9,240.4 656.4,234.9 663,231.1 663.5,232 657.2,235.6 "/>
<polygon class="st0" points="646.2,240.7 644.8,235.6 638.6,232 639.1,231.1 645.7,234.9 647.1,240.4 "/>
<rect x="650.5" y="252.4" class="st0" width="1" height="7.9"/>
<polygon class="st0" points="639.1,259.9 638.6,259 644.8,255.4 646.2,250.3 647.1,250.6 645.7,256.1 "/>
<polygon class="st0" points="663,259.9 656.4,256.1 654.9,250.6 655.8,250.3 657.2,255.4 663.5,259 "/>
<g>
	<polygon class="st0" points="142.9,342 103.8,303 103.8,224.1 125.5,245.8 125.6,245.9 153.4,245.9 153.4,244.9 126,244.9    102.8,221.7 102.8,303.4 141.4,342  "/>
</g>
<rect x="37.4" y="263.8" class="st0" width="1" height="6.4"/>
<rect x="42.4" y="263.8" class="st0" width="1" height="6.4"/>
<rect x="22.6" y="263.8" class="st0" width="1" height="6.4"/>
<rect x="27.6" y="263.8" class="st0" width="1" height="6.4"/>
<rect x="32.5" y="263.8" class="st0" width="1" height="6.4"/>
<rect x="39.9" y="255.9" class="st0" width="1" height="6.4"/>
<rect x="44.8" y="255.9" class="st0" width="1" height="6.4"/>
<rect x="20.2" y="255.9" class="st0" width="1" height="6.4"/>
<rect x="25.1" y="255.9" class="st0" width="1" height="6.4"/>
<rect x="30" y="255.9" class="st0" width="1" height="6.4"/>
<rect x="35" y="255.9" class="st0" width="1" height="6.4"/>
<rect x="37.4" y="248" class="st0" width="1" height="6.4"/>
<rect x="42.4" y="248" class="st0" width="1" height="6.4"/>
<rect x="22.6" y="248" class="st0" width="1" height="6.4"/>
<rect x="27.6" y="248" class="st0" width="1" height="6.4"/>
<rect x="17.7" y="248" class="st0" width="1" height="6.4"/>
<rect x="32.5" y="248" class="st0" width="1" height="6.4"/>
<rect x="39.9" y="240.1" class="st0" width="1" height="6.4"/>
<rect x="44.8" y="240.1" class="st0" width="1" height="6.4"/>
<rect x="20.2" y="240.1" class="st0" width="1" height="6.4"/>
<rect x="25.1" y="240.1" class="st0" width="1" height="6.4"/>
<rect x="30" y="240.1" class="st0" width="1" height="6.4"/>
<rect x="35" y="240.1" class="st0" width="1" height="6.4"/>
<rect x="37.4" y="232.2" class="st0" width="1" height="6.4"/>
<rect x="42.4" y="232.2" class="st0" width="1" height="6.4"/>
<rect x="22.6" y="232.2" class="st0" width="1" height="6.4"/>
<rect x="27.6" y="232.2" class="st0" width="1" height="6.4"/>
<rect x="32.5" y="232.2" class="st0" width="1" height="6.4"/>
<rect x="57.2" y="263.8" class="st0" width="1" height="6.4"/>
<rect x="47.3" y="263.8" class="st0" width="1" height="6.4"/>
<rect x="52.2" y="263.8" class="st0" width="1" height="6.4"/>
<rect x="54.7" y="255.9" class="st0" width="1" height="6.4"/>
<rect x="59.7" y="255.9" class="st0" width="1" height="6.4"/>
<rect x="49.8" y="255.9" class="st0" width="1" height="6.4"/>
<rect x="57.2" y="248" class="st0" width="1" height="6.4"/>
<rect x="62.1" y="248" class="st0" width="1" height="6.4"/>
<rect x="47.3" y="248" class="st0" width="1" height="6.4"/>
<rect x="52.2" y="248" class="st0" width="1" height="6.4"/>
<rect x="54.7" y="240.1" class="st0" width="1" height="6.4"/>
<rect x="59.7" y="240.1" class="st0" width="1" height="6.4"/>
<rect x="49.8" y="240.1" class="st0" width="1" height="6.4"/>
<rect x="57.2" y="232.2" class="st0" width="1" height="6.4"/>
<rect x="47.3" y="232.2" class="st0" width="1" height="6.4"/>
<rect x="52.2" y="232.2" class="st0" width="1" height="6.4"/>
<polygon class="st0" points="577.8,36.2 577.8,0 576.8,0 576.8,36.6 652.8,112.7 629.5,136 629.5,152.6 630.5,152.6 630.5,136.4   654.2,112.7 "/>
<polygon class="st0" points="103.8,36.2 103.8,0 102.9,0 102.9,36.6 178.9,112.7 155.5,136 155.5,152.6 156.5,152.6 156.5,136.4   180.3,112.7 "/>
<polygon class="st0" points="617,342 577.8,302.8 577.8,224.1 599.6,245.9 627.3,245.9 627.3,244.9 600,244.9 576.8,221.7   576.8,303.3 615.6,342 "/>
<path class="st0" d="M857,278h-4.9v-4.9h4.9V278z M853.1,277h3v-3h-3V277z"/>
<path class="st0" d="M870.9,278h-4.9v-4.9h4.9V278z M866.9,277h3v-3h-3V277z"/>
<path class="st0" d="M884.7,278h-4.9v-4.9h4.9V278z M880.7,277h3v-3h-3V277z"/>
<path class="st0" d="M898.5,278h-4.9v-4.9h4.9V278z M894.6,277h3v-3h-3V277z"/>
<path class="st0" d="M912.3,278h-4.9v-4.9h4.9V278z M908.4,277h3v-3h-3V277z"/>
<path class="st0" d="M870.9,265.4h-4.9v-4.9h4.9V265.4z M866.9,264.4h3v-3h-3V264.4z"/>
<path class="st0" d="M884.7,265.4h-4.9v-4.9h4.9V265.4z M880.7,264.4h3v-3h-3V264.4z"/>
<path class="st0" d="M898.5,265.4h-4.9v-4.9h4.9V265.4z M894.6,264.4h3v-3h-3V264.4z"/>
<path class="st0" d="M884.7,252.8h-4.9v-4.9h4.9V252.8z M880.7,251.8h3v-3h-3V251.8z"/>
<path class="st0" d="M898.5,252.8h-4.9v-4.9h4.9V252.8z M894.6,251.8h3v-3h-3V251.8z"/>
<path class="st0" d="M912.3,265.4h-4.9v-4.9h4.9V265.4z M908.4,264.4h3v-3h-3V264.4z"/>
<path class="st0" d="M926.2,278h-4.9v-4.9h4.9V278z M922.2,277h3v-3h-3V277z"/>
<g>
	<rect x="921.2" y="285.7" class="st0" width="4.9" height="0.6"/>
</g>
<g>
	<rect x="935.1" y="285.7" class="st0" width="4.9" height="0.6"/>
</g>
<g>
	<rect x="907.4" y="285.7" class="st0" width="4.9" height="0.6"/>
</g>
<g>
	<rect x="893.6" y="285.7" class="st0" width="4.9" height="0.6"/>
</g>
<g>
	<rect x="879.8" y="285.7" class="st0" width="4.9" height="0.6"/>
</g>
<g>
	<rect x="865.9" y="285.7" class="st0" width="4.9" height="0.6"/>
</g>
<g>
	<rect x="852.1" y="285.7" class="st0" width="4.9" height="0.6"/>
</g>
<g>
	<rect x="838.3" y="285.7" class="st0" width="4.9" height="0.6"/>
</g>
<path class="st0" d="M857,303.3h-4.9v-4.9h4.9V303.3z M853.1,302.3h3v-3h-3V302.3z"/>
<path class="st0" d="M870.9,303.3h-4.9v-4.9h4.9V303.3z M866.9,302.3h3v-3h-3V302.3z"/>
<path class="st0" d="M884.7,303.3h-4.9v-4.9h4.9V303.3z M880.7,302.3h3v-3h-3V302.3z"/>
<path class="st0" d="M898.5,303.3h-4.9v-4.9h4.9V303.3z M894.6,302.3h3v-3h-3V302.3z"/>
<path class="st0" d="M870.9,316h-4.9V311h4.9V316z M866.9,315h3v-3h-3V315z"/>
<path class="st0" d="M884.7,316h-4.9V311h4.9V316z M880.7,315h3v-3h-3V315z"/>
<path class="st0" d="M898.5,316h-4.9V311h4.9V316z M894.6,315h3v-3h-3V315z"/>
<path class="st0" d="M884.7,328.6h-4.9v-4.9h4.9V328.6z M880.7,327.6h3v-3h-3V327.6z"/>
<path class="st0" d="M898.5,328.6h-4.9v-4.9h4.9V328.6z M894.6,327.6h3v-3h-3V327.6z"/>
<path class="st0" d="M912.3,303.3h-4.9v-4.9h4.9V303.3z M908.4,302.3h3v-3h-3V302.3z"/>
<path class="st0" d="M912.3,316h-4.9V311h4.9V316z M908.4,315h3v-3h-3V315z"/>
<path class="st0" d="M926.2,303.3h-4.9v-4.9h4.9V303.3z M922.2,302.3h3v-3h-3V302.3z"/>
<g>
	<path class="st0" d="M838.3,286.3v4.4h4.9v-4.4H838.3z M842.2,289.7h-3v-3h3V289.7z"/>
</g>
<g>
	<path class="st0" d="M852.1,286.3v4.4h4.9v-4.4H852.1z M856.1,289.7h-3v-3h3V289.7z"/>
</g>
<g>
	<path class="st0" d="M865.9,286.3v4.4h4.9v-4.4H865.9z M869.9,289.7h-3v-3h3V289.7z"/>
</g>
<g>
	<path class="st0" d="M879.8,286.3v4.4h4.9v-4.4H879.8z M883.7,289.7h-3v-3h3V289.7z"/>
</g>
<g>
	<path class="st0" d="M893.6,286.3v4.4h4.9v-4.4H893.6z M897.5,289.7h-3v-3h3V289.7z"/>
</g>
<g>
	<path class="st0" d="M907.4,286.3v4.4h4.9v-4.4H907.4z M911.4,289.7h-3v-3h3V289.7z"/>
</g>
<g>
	<path class="st0" d="M921.2,286.3v4.4h4.9v-4.4H921.2z M925.2,289.7h-3v-3h3V289.7z"/>
</g>
<g>
	<path class="st0" d="M935.1,286.3v4.4h4.9v-4.4H935.1z M939,289.7h-3v-3h3V289.7z"/>
</g>
<polygon class="st0" points="389.9,342 372.8,324.9 346.9,324.9 346.9,325.7 372.5,325.7 388.8,342 "/>
<polygon class="st0" points="863.9,342 846.8,324.9 820.9,324.9 820.9,325.7 846.5,325.7 862.8,342 "/>
</svg>